<svg width="25" height="25" viewBox="0 0 25 25" fill="none" xmlns="http://www.w3.org/2000/svg">
<path d="M8.44189 12.7136C8.44189 14.8438 10.1688 16.5707 12.2991 16.5707C14.4293 16.5707 16.1562 14.8438 16.1562 12.7136C16.1562 10.5833 14.4293 8.85645 12.2991 8.85645C10.1688 8.85645 8.44189 10.5833 8.44189 12.7136Z" stroke="#001A72" stroke-width="1.5" stroke-linecap="round" stroke-linejoin="round"/>
<path d="M16.1564 12.7139V13.9996C16.1564 15.4198 17.3077 16.571 18.7279 16.571C19.6401 16.571 20.4415 16.096 20.8979 15.3797C21.1521 14.981 21.2993 14.5075 21.2993 13.9996V12.7139C21.2993 7.74331 17.2699 3.71387 12.2993 3.71387C7.32876 3.71387 3.29932 7.74331 3.29932 12.7139C3.29932 17.6845 7.32876 21.7139 12.2993 21.7139C14.2115 21.7139 15.9844 21.1176 17.4422 20.1007" stroke="#001A72" stroke-width="1.5" stroke-linecap="round" stroke-linejoin="round"/>
</svg>
