<svg width="25" height="25" viewBox="0 0 25 25" fill="none" xmlns="http://www.w3.org/2000/svg">
<path d="M20.2993 11.6835L12.2621 19.2636C11.2775 20.1922 9.94206 20.7139 8.5496 20.7139C7.15714 20.7139 5.82171 20.1922 4.83709 19.2636C3.85247 18.335 3.29932 17.0755 3.29932 15.7622C3.29932 14.449 3.85247 13.1895 4.83709 12.2609L12.8743 4.68074C13.5307 4.06166 14.421 3.71387 15.3493 3.71387C16.2776 3.71387 17.1679 4.06166 17.8243 4.68074C18.4807 5.29982 18.8495 6.13947 18.8495 7.01498C18.8495 7.89049 18.4807 8.73015 17.8243 9.34922L9.77836 16.9293C9.45015 17.2389 9.00501 17.4128 8.54086 17.4128C8.0767 17.4128 7.63156 17.2389 7.30335 16.9293C6.97515 16.6198 6.79076 16.2 6.79076 15.7622C6.79076 15.3245 6.97515 14.9046 7.30335 14.5951L14.7283 7.60061" stroke="#001A72" stroke-width="1.5" stroke-linecap="round" stroke-linejoin="round"/>
</svg>
