<svg width="25" height="25" viewBox="0 0 25 25" fill="none" xmlns="http://www.w3.org/2000/svg">
<path d="M5.05245 7.37595C3.95059 8.86936 3.29932 10.7156 3.29932 12.7139C3.29932 14.707 3.94717 16.5487 5.04376 18.04C6.68201 20.268 9.32181 21.7139 12.2993 21.7139C15.2658 21.7139 17.897 20.2787 19.5366 18.0648C20.6443 16.5691 21.2993 14.718 21.2993 12.7139C21.2993 10.7219 20.6522 8.88107 19.5566 7.39017C17.9185 5.16082 15.2779 3.71387 12.2993 3.71387C9.32707 3.71387 6.69133 5.15467 5.05245 7.37595Z" stroke="#001A72" stroke-width="1.5" stroke-linecap="round" stroke-linejoin="round"/>
<path d="M19.5567 7.39014C18.3299 8.18864 17.3312 9.02908 16.756 10.4177C16.4545 11.1457 16.2993 11.9259 16.2993 12.7139C16.2993 13.5018 16.4545 14.282 16.756 15.01C17.3349 16.4076 18.3444 17.2111 19.5366 18.0647" stroke="#001A72" stroke-width="1.5" stroke-linecap="round" stroke-linejoin="round"/>
<path d="M5.05263 7.37598C6.27819 8.14201 7.27906 9.05685 7.84278 10.4178C8.14431 11.1458 8.2995 11.926 8.2995 12.7139C8.2995 13.5019 8.14431 14.2821 7.84278 15.01C7.26767 16.3985 6.2682 17.2385 5.04395 18.0401" stroke="#001A72" stroke-width="1.5" stroke-linecap="round" stroke-linejoin="round"/>
<path d="M21.2993 12.7139H3.29932" stroke="#001A72" stroke-width="1.5" stroke-linecap="round" stroke-linejoin="round"/>
<path d="M12.2993 21.7139V3.71387" stroke="#001A72" stroke-width="1.5" stroke-linecap="round" stroke-linejoin="round"/>
</svg>
