<svg width="25" height="25" viewBox="0 0 25 25" fill="none" xmlns="http://www.w3.org/2000/svg">
<path d="M8.29932 5.29595C9.36083 4.57652 10.7626 4.21387 12.2993 4.21387C15.613 4.21387 18.2993 5.90016 18.2993 9.21387C18.2993 11.1531 19.0044 13.3272 19.7309 15.0528C19.9617 15.601 19.9559 16.1925 19.7738 16.7139" stroke="#001A72" stroke-width="1.5" stroke-linecap="round" stroke-linejoin="round"/>
<path d="M6.14146 10.9238C5.89318 12.3625 5.38609 13.8211 4.86805 15.0516C4.26486 16.4844 5.2771 18.2134 6.83169 18.2134H13.2993" stroke="#001A72" stroke-width="1.5" stroke-linecap="round" stroke-linejoin="round"/>
<path d="M9.29932 18.2139V19.2139C9.29932 20.8708 10.6424 21.7139 12.2993 21.7139C13.6565 21.7139 14.8032 21.1482 15.1736 20.0329" stroke="#001A72" stroke-width="1.5" stroke-linecap="round" stroke-linejoin="round"/>
<path d="M3.29932 4.21387L21.2993 22.2139" stroke="#001A72" stroke-width="1.5" stroke-linecap="round" stroke-linejoin="round"/>
</svg>
