<svg width="25" height="25" viewBox="0 0 25 25" fill="none" xmlns="http://www.w3.org/2000/svg">
<path d="M18.2991 6.21387C18.2991 6.40777 18.277 6.59651 18.2352 6.77772C18.4165 6.73594 18.6052 6.71387 18.7991 6.71387C20.1798 6.71387 21.2991 7.83316 21.2991 9.21387C21.2991 10.5946 20.1798 11.7139 18.7991 11.7139C18.0402 11.7139 17.2402 11.5499 16.5605 11.8873C16.0717 12.1299 15.6075 12.4211 15.1751 12.757L14.2991 11.7139L12.9838 12.1353L12.2534 9.84152C12.5904 9.40815 12.8825 8.94282 13.1257 8.45287C13.4632 7.77305 13.2991 6.97285 13.2991 6.21387C13.2991 4.83316 14.4184 3.71387 15.7991 3.71387C17.1798 3.71387 18.2991 4.83316 18.2991 6.21387Z" stroke="#001A72" stroke-width="1.5" stroke-linecap="round" stroke-linejoin="round"/>
<path d="M11.2993 19.2138C11.2993 20.5945 10.18 21.7138 8.79932 21.7138C7.41861 21.7138 6.29932 20.5945 6.29932 19.2138C6.29932 19.0199 6.32139 18.8312 6.36317 18.65C6.18196 18.6917 5.99322 18.7138 5.79932 18.7138C4.41861 18.7138 3.29932 17.5945 3.29932 16.2138C3.29932 14.8331 4.41861 13.7138 5.79932 13.7138C6.55825 13.7138 7.35839 13.8779 8.03816 13.5405C8.52756 13.2975 8.99238 13.0059 9.42533 12.6694L10.2993 13.7138V14.7138L12.3476 15.5832C12.0095 16.0175 11.7165 16.4841 11.4727 16.9753C11.1353 17.655 11.2993 18.455 11.2993 19.2138Z" stroke="#001A72" stroke-width="1.5" stroke-linecap="round" stroke-linejoin="round"/>
</svg>
