<svg width="25" height="25" viewBox="0 0 25 25" fill="none" xmlns="http://www.w3.org/2000/svg">
<path d="M18.2993 6.21387C18.2993 6.40777 18.2772 6.59651 18.2355 6.77772C18.4167 6.73594 18.6054 6.71387 18.7993 6.71387C20.18 6.71387 21.2993 7.83316 21.2993 9.21387C21.2993 10.5946 20.18 11.7139 18.7993 11.7139C18.0404 11.7139 17.2404 11.5499 16.5607 11.8873C15.7678 12.2809 15.0394 12.8023 14.4066 13.4352L13.0207 14.8211C12.3878 15.454 11.8663 16.1824 11.4727 16.9754C11.1353 17.6551 11.2993 18.4551 11.2993 19.2139C11.2993 20.5946 10.18 21.7139 8.79932 21.7139C7.41861 21.7139 6.29932 20.5946 6.29932 19.2139C6.29932 19.02 6.32139 18.8313 6.36317 18.6501C6.18196 18.6918 5.99322 18.7139 5.79932 18.7139C4.41861 18.7139 3.29932 17.5946 3.29932 16.2139C3.29932 14.8332 4.41861 13.7139 5.79932 13.7139C6.55825 13.7139 7.35839 13.878 8.03817 13.5405C8.83105 13.1469 9.55942 12.6255 10.1923 11.9926L11.5781 10.6067C12.2109 9.97394 12.7323 9.24565 13.1259 8.45287C13.4634 7.77306 13.2993 6.97285 13.2993 6.21387C13.2993 4.83316 14.4186 3.71387 15.7993 3.71387C17.18 3.71387 18.2993 4.83316 18.2993 6.21387Z" stroke="#001A72" stroke-width="1.5" stroke-linecap="round" stroke-linejoin="round"/>
</svg>
