<svg width="25" height="25" viewBox="0 0 25 25" fill="none" xmlns="http://www.w3.org/2000/svg">
<path d="M16.2993 15.7139C17.4039 15.7139 18.2993 14.8184 18.2993 13.7139C18.2993 12.6093 17.4039 11.7139 16.2993 11.7139C15.1947 11.7139 14.2993 12.6093 14.2993 13.7139C14.2993 14.8184 15.1947 15.7139 16.2993 15.7139Z" stroke="#001A72" stroke-width="1.5" stroke-linecap="round" stroke-linejoin="round"/>
<path d="M19.0493 21.7139H13.5493C12.8589 21.7139 12.2993 21.1543 12.2993 20.4639C12.2993 18.4235 15.2993 18.4639 16.2993 18.4639C17.2993 18.4639 20.2993 18.4235 20.2993 20.4639C20.2993 21.1543 19.7397 21.7139 19.0493 21.7139Z" stroke="#001A72" stroke-width="1.5" stroke-linecap="round" stroke-linejoin="round"/>
<path d="M15.2993 3.21387V7.21387" stroke="#001A72" stroke-width="1.5" stroke-linecap="round" stroke-linejoin="round"/>
<path d="M9.29932 3.21387V7.21387" stroke="#001A72" stroke-width="1.5" stroke-linecap="round" stroke-linejoin="round"/>
<path d="M3.81641 12.2139H9.29908" stroke="#001A72" stroke-width="1.5" stroke-linecap="round" stroke-linejoin="round"/>
<path d="M8.29932 21.318C4.94026 20.4656 3.79932 18.1233 3.79932 13.2139C3.79932 12.8679 3.80499 12.5347 3.81669 12.2139C4.02496 6.50664 6.14528 4.71387 12.2993 4.71387C17.6672 4.71387 19.9661 6.07786 20.6041 10.2139" stroke="#001A72" stroke-width="1.5" stroke-linecap="round" stroke-linejoin="round"/>
</svg>
