<svg width="25" height="25" viewBox="0 0 25 25" fill="none" xmlns="http://www.w3.org/2000/svg">
<path d="M14.2993 19.7139H17.2993" stroke="#001A72" stroke-width="1.5" stroke-linecap="round" stroke-linejoin="round"/>
<path d="M17.2993 21.7139H18.2993C19.4039 21.7139 20.2993 20.8185 20.2993 19.7139C20.2993 18.6093 19.4039 17.7139 18.2993 17.7139H17.2993" stroke="#001A72" stroke-width="1.5" stroke-linecap="round" stroke-linejoin="round"/>
<path d="M14.2993 17.7139H13.2993C12.1947 17.7139 11.2993 18.6093 11.2993 19.7139C11.2993 20.8185 12.1947 21.7139 13.2993 21.7139H14.2993" stroke="#001A72" stroke-width="1.5" stroke-linecap="round" stroke-linejoin="round"/>
<path d="M15.2993 3.21387V7.21387" stroke="#001A72" stroke-width="1.5" stroke-linecap="round" stroke-linejoin="round"/>
<path d="M9.29932 3.21387V7.21387" stroke="#001A72" stroke-width="1.5" stroke-linecap="round" stroke-linejoin="round"/>
<path d="M3.81641 12.2139H15.2991" stroke="#001A72" stroke-width="1.5" stroke-linecap="round" stroke-linejoin="round"/>
<path d="M8.29932 21.318C4.94026 20.4656 3.79932 18.1233 3.79932 13.2139C3.79932 12.8679 3.80499 12.5347 3.81669 12.2139C4.02496 6.50664 6.14528 4.71387 12.2993 4.71387C17.6672 4.71387 19.9661 6.07786 20.6041 10.2139" stroke="#001A72" stroke-width="1.5" stroke-linecap="round" stroke-linejoin="round"/>
</svg>
