<svg width="25" height="25" viewBox="0 0 25 25" fill="none" xmlns="http://www.w3.org/2000/svg">
<path d="M17.1768 15.7139L21.2996 17.7139C21.2996 17.7139 21.7996 15.7139 21.7996 12.7139C21.7996 9.71387 21.2996 7.71387 21.2996 7.71387L17.1768 9.71387" stroke="#001A72" stroke-width="1.5" stroke-linecap="round" stroke-linejoin="round"/>
<path d="M10.2993 5.71387C7.18821 5.71387 4.46599 6.10276 4.0771 6.49165C3.68821 6.88054 3.29932 9.60276 3.29932 12.7139C3.29932 15.825 3.68821 18.5472 4.0771 18.9361C4.46599 19.325 7.18821 19.7139 10.2993 19.7139C13.4104 19.7139 16.1326 19.325 16.5215 18.9361C16.7763 18.6813 17.0311 17.425 17.1765 15.7139C17.2531 14.8133 17.2993 13.7867 17.2993 12.7139C17.2993 11.6411 17.2531 10.6145 17.1765 9.71387C17.0311 8.00278 16.7763 6.74643 16.5215 6.49165C16.1326 6.10276 13.4104 5.71387 10.2993 5.71387Z" stroke="#001A72" stroke-width="1.5" stroke-linecap="round" stroke-linejoin="round"/>
</svg>
