<svg width="25" height="25" viewBox="0 0 25 25" fill="none" xmlns="http://www.w3.org/2000/svg">
<path d="M17.1768 9.71387L21.2996 7.71387C21.2996 7.71387 21.7996 9.71387 21.7996 12.7139C21.7996 15.7139 21.2996 17.7139 21.2996 17.7139" stroke="#001A72" stroke-width="1.5" stroke-linecap="round" stroke-linejoin="round"/>
<path d="M10.2993 5.71387C13.4104 5.71387 16.1326 6.10276 16.5215 6.49165C16.7763 6.74643 17.0311 8.00278 17.1765 9.71387C17.2531 10.6145 17.2993 11.6411 17.2993 12.7139" stroke="#001A72" stroke-width="1.5" stroke-linecap="round" stroke-linejoin="round"/>
<path d="M3.29932 3.71387L21.2993 21.7139" stroke="#001A72" stroke-width="1.5" stroke-linecap="round" stroke-linejoin="round"/>
<path d="M3.52559 8.71387C3.38913 9.81353 3.29932 11.2188 3.29932 12.7139C3.29932 15.825 3.68821 18.5472 4.0771 18.9361C4.46599 19.325 7.18821 19.7139 10.2993 19.7139C11.7944 19.7139 13.1996 19.6241 14.2993 19.4876" stroke="#001A72" stroke-width="1.5" stroke-linecap="round" stroke-linejoin="round"/>
</svg>
