<svg width="25" height="25" viewBox="0 0 25 25" fill="none" xmlns="http://www.w3.org/2000/svg">
<path d="M21.2993 13.7139C21.2993 11.0472 20.7993 8.71387 20.2993 8.38054C19.9789 8.1669 18.4261 7.95327 16.2993 7.82739C15.1076 7.75685 17.2993 5.71387 12.2993 5.71387C7.29932 5.71387 9.491 7.75685 8.29932 7.82739C6.17248 7.95327 4.61977 8.1669 4.29932 8.38054C3.79932 8.71387 3.29932 11.0472 3.29932 13.7139C3.29932 16.3806 3.79932 18.7139 4.29932 19.0472C4.79932 19.3806 8.29932 19.7139 12.2993 19.7139C16.2993 19.7139 19.7993 19.3806 20.2993 19.0472C20.7993 18.7139 21.2993 16.3806 21.2993 13.7139Z" stroke="#001A72" stroke-width="1.5" stroke-linecap="round" stroke-linejoin="round"/>
<path d="M12.2993 16.7139C13.9562 16.7139 15.2993 15.3708 15.2993 13.7139C15.2993 12.057 13.9562 10.7139 12.2993 10.7139C10.6424 10.7139 9.29932 12.057 9.29932 13.7139C9.29932 15.3708 10.6424 16.7139 12.2993 16.7139Z" stroke="#001A72" stroke-width="1.5" stroke-linecap="round" stroke-linejoin="round"/>
</svg>
