<svg width="25" height="25" viewBox="0 0 25 25" fill="none" xmlns="http://www.w3.org/2000/svg">
<path d="M15.2993 19.6511C14.3638 19.691 13.3488 19.7139 12.2993 19.7139C8.29932 19.7139 4.79932 19.3806 4.29932 19.0472C3.79932 18.7139 3.29932 16.3806 3.29932 13.7139C3.29932 11.4988 3.64431 9.51373 4.04772 8.71387" stroke="#001A72" stroke-width="1.5" stroke-linecap="round" stroke-linejoin="round"/>
<path d="M12.2993 16.7139C10.6424 16.7139 9.29932 15.3708 9.29932 13.7139" stroke="#001A72" stroke-width="1.5" stroke-linecap="round" stroke-linejoin="round"/>
<path d="M3.29932 3.71387L21.2993 21.7139" stroke="#001A72" stroke-width="1.5" stroke-linecap="round" stroke-linejoin="round"/>
<path d="M10.2993 5.87568C10.7881 5.77468 11.4367 5.71387 12.2993 5.71387C17.2993 5.71387 15.1076 7.75685 16.2993 7.82739C18.4261 7.95327 19.9789 8.1669 20.2993 8.38054C20.7993 8.71387 21.2993 11.0472 21.2993 13.7139C21.2993 14.8085 21.2151 15.8469 21.0812 16.7139" stroke="#001A72" stroke-width="1.5" stroke-linecap="round" stroke-linejoin="round"/>
</svg>
