<svg width="25" height="25" viewBox="0 0 25 25" fill="none" xmlns="http://www.w3.org/2000/svg">
<path d="M11.5795 6.63403L11.0593 6.09458C10.2068 5.21053 9.0506 4.71387 7.84501 4.71387C5.29932 4.71387 3.29932 6.71387 3.29932 10.4279C3.29932 11.4152 3.52132 12.3461 3.89559 13.2139C5.90434 17.8717 12.2993 20.7139 12.2993 20.7139C12.2993 20.7139 18.6943 17.8717 20.703 13.2139C21.0773 12.3461 21.2993 11.4152 21.2993 10.4279C21.2993 6.71387 19.2641 4.71387 16.7536 4.71387C15.548 4.71387 14.3918 5.21053 13.5393 6.09458L13.0191 6.63403C12.6259 7.04185 11.9727 7.04185 11.5795 6.63403Z" stroke="#001A72" stroke-width="1.5" stroke-linecap="round" stroke-linejoin="round"/>
<path d="M20.7029 13.214H16.6241C16.4265 13.214 16.2475 13.0977 16.1672 12.9171L14.7475 9.72271C14.5729 9.32987 14.0168 9.32593 13.8366 9.71625L11.7352 14.2695C11.5595 14.6501 11.0215 14.6585 10.834 14.2835L9.74645 12.1084C9.56219 11.7399 9.03629 11.7399 8.85203 12.1084L8.43744 12.9376C8.35274 13.107 8.17961 13.214 7.99022 13.214H3.89551" stroke="#001A72" stroke-width="1.5" stroke-linecap="round" stroke-linejoin="round"/>
</svg>
