<svg width="25" height="25" viewBox="0 0 25 25" fill="none" xmlns="http://www.w3.org/2000/svg">
<path d="M5.08496 5.71387H18.5244C19.8896 5.71387 20.8535 7.05126 20.4218 8.34633L18.7551 13.3464C18.4829 14.163 17.7186 14.7139 16.8578 14.7139H6.37067" stroke="#001A72" stroke-width="1.5" stroke-linecap="round" stroke-linejoin="round"/>
<path d="M17.2993 17.7139H8.53391C7.53861 17.7139 6.69477 16.982 6.55401 15.9967L6.37075 14.7139L5.08503 5.71387L5.04463 5.43103C4.90387 4.44573 4.06003 3.71387 3.06473 3.71387H2.29932" stroke="#001A72" stroke-width="1.5" stroke-linecap="round" stroke-linejoin="round"/>
<path d="M9.29932 21.7139C10.4039 21.7139 11.2993 20.8185 11.2993 19.7139C11.2993 18.6093 10.4039 17.7139 9.29932 17.7139C8.19475 17.7139 7.29932 18.6093 7.29932 19.7139C7.29932 20.8185 8.19475 21.7139 9.29932 21.7139Z" stroke="#001A72" stroke-width="1.5" stroke-linecap="round" stroke-linejoin="round"/>
<path d="M17.2993 21.7139C18.4039 21.7139 19.2993 20.8185 19.2993 19.7139C19.2993 18.6093 18.4039 17.7139 17.2993 17.7139C16.1947 17.7139 15.2993 18.6093 15.2993 19.7139C15.2993 20.8185 16.1947 21.7139 17.2993 21.7139Z" stroke="#001A72" stroke-width="1.5" stroke-linecap="round" stroke-linejoin="round"/>
</svg>
