<svg width="25" height="25" viewBox="0 0 25 25" fill="none" xmlns="http://www.w3.org/2000/svg">
<path d="M12.2993 21.7139C17.2699 21.7139 21.2993 17.6845 21.2993 12.7139C21.2993 7.74331 17.2699 3.71387 12.2993 3.71387C7.32876 3.71387 3.29932 7.74331 3.29932 12.7139C3.29932 17.6845 7.32876 21.7139 12.2993 21.7139Z" stroke="#001A72" stroke-width="1.5" stroke-linecap="round" stroke-linejoin="round"/>
<path d="M9.29932 16.7139H12.2993H13.2993C13.966 16.7139 15.2993 16.3139 15.2993 14.7139C15.2993 13.1139 13.966 12.7139 13.2993 12.7139H11.2993C10.6326 12.7139 9.29932 12.3139 9.29932 10.7139C9.29932 9.11387 10.6326 8.71387 11.2993 8.71387H12.2993H15.2993" stroke="#001A72" stroke-width="1.5" stroke-linecap="round" stroke-linejoin="round"/>
<path d="M12.2993 16.7139V18.7139" stroke="#001A72" stroke-width="1.5" stroke-linecap="round" stroke-linejoin="round"/>
<path d="M12.2993 8.71387V6.71387" stroke="#001A72" stroke-width="1.5" stroke-linecap="round" stroke-linejoin="round"/>
</svg>
