<svg width="25" height="25" viewBox="0 0 25 25" fill="none" xmlns="http://www.w3.org/2000/svg">
<path d="M9.29932 9.71387H15.2993V15.7139H9.29932V9.71387Z" stroke="#001A72" stroke-width="1.5"/>
<path d="M6.29932 21.7139C7.95617 21.7139 9.29932 20.3708 9.29932 18.7139V15.7139H6.29932C4.64247 15.7139 3.29932 17.057 3.29932 18.7139C3.29932 20.3708 4.64247 21.7139 6.29932 21.7139Z" stroke="#001A72" stroke-width="1.5"/>
<path d="M21.2993 18.7139C21.2993 17.057 19.9562 15.7139 18.2993 15.7139H15.2993V18.7139C15.2993 20.3708 16.6424 21.7139 18.2993 21.7139C19.9562 21.7139 21.2993 20.3708 21.2993 18.7139Z" stroke="#001A72" stroke-width="1.5"/>
<path d="M18.2993 3.71387C16.6424 3.71387 15.2993 5.05702 15.2993 6.71387V9.71387H18.2993C19.9562 9.71387 21.2993 8.37072 21.2993 6.71387C21.2993 5.05702 19.9562 3.71387 18.2993 3.71387Z" stroke="#001A72" stroke-width="1.5"/>
<path d="M3.29932 6.71387C3.29932 8.37072 4.64247 9.71387 6.29932 9.71387H9.29932V6.71387C9.29932 5.05702 7.95617 3.71387 6.29932 3.71387C4.64247 3.71387 3.29932 5.05702 3.29932 6.71387Z" stroke="#001A72" stroke-width="1.5"/>
</svg>
