<svg width="25" height="25" viewBox="0 0 25 25" fill="none" xmlns="http://www.w3.org/2000/svg">
<path d="M7.29932 14.7139C7.29932 14.7139 8.29932 14.7139 9.79932 14.7139C11.2993 14.7139 12.2993 14.7139 12.2993 14.7139" stroke="#001A72" stroke-width="1.5" stroke-linecap="round" stroke-linejoin="round"/>
<path d="M21.2051 10.7139H3.39355" stroke="#001A72" stroke-width="1.5" stroke-linecap="round" stroke-linejoin="round"/>
<path d="M12.2993 6.71387C8.29932 6.71387 4.79932 7.0472 4.29932 7.38054C3.9305 7.62641 3.56169 8.9605 3.39354 10.7139C3.33374 11.3376 3.29932 12.0143 3.29932 12.7139C3.29932 15.3806 3.79932 17.7139 4.29932 18.0472C4.79932 18.3806 8.29932 18.7139 12.2993 18.7139C16.2993 18.7139 19.7993 18.3806 20.2993 18.0472C20.7993 17.7139 21.2993 15.3806 21.2993 12.7139C21.2993 12.0143 21.2649 11.3376 21.2051 10.7139C21.0369 8.9605 20.6681 7.62641 20.2993 7.38054C19.7993 7.0472 16.2993 6.71387 12.2993 6.71387Z" stroke="#001A72" stroke-width="1.5" stroke-linecap="round" stroke-linejoin="round"/>
</svg>
