<svg width="25" height="25" viewBox="0 0 25 25" fill="none" xmlns="http://www.w3.org/2000/svg">
<path d="M8.68783 20.7139C6.73247 20.7139 5.06371 19.3002 4.74225 17.3715L3.29932 8.71387L7.0553 11.787C7.98305 12.546 9.36555 12.3241 10.0091 11.3128L12.2993 7.71387L14.5895 11.3128C15.2331 12.3241 16.6156 12.546 17.5433 11.787L21.2993 8.71387L19.8564 17.3715C19.5349 19.3002 17.8661 20.7139 15.9108 20.7139H8.68783Z" stroke="#001A72" stroke-width="1.5" stroke-linecap="round" stroke-linejoin="round"/>
<path d="M22.7993 7.21387C22.7993 8.0423 22.1277 8.71387 21.2993 8.71387C20.4709 8.71387 19.7993 8.0423 19.7993 7.21387C19.7993 6.38544 20.4709 5.71387 21.2993 5.71387C22.1277 5.71387 22.7993 6.38544 22.7993 7.21387Z" stroke="#001A72" stroke-width="1.5" stroke-linecap="round" stroke-linejoin="round"/>
<path d="M13.7993 6.21387C13.7993 7.0423 13.1277 7.71387 12.2993 7.71387C11.4709 7.71387 10.7993 7.0423 10.7993 6.21387C10.7993 5.38544 11.4709 4.71387 12.2993 4.71387C13.1277 4.71387 13.7993 5.38544 13.7993 6.21387Z" stroke="#001A72" stroke-width="1.5" stroke-linecap="round" stroke-linejoin="round"/>
<path d="M4.79932 7.21387C4.79932 8.0423 4.12775 8.71387 3.29932 8.71387C2.47089 8.71387 1.79932 8.0423 1.79932 7.21387C1.79932 6.38544 2.47089 5.71387 3.29932 5.71387C4.12775 5.71387 4.79932 6.38544 4.79932 7.21387Z" stroke="#001A72" stroke-width="1.5" stroke-linecap="round" stroke-linejoin="round"/>
</svg>
