<svg width="25" height="25" viewBox="0 0 25 25" fill="none" xmlns="http://www.w3.org/2000/svg">
<path d="M4.29932 19.7139H20.2993" stroke="#001A72" stroke-width="1.5" stroke-linecap="round" stroke-linejoin="round"/>
<path d="M5.29932 16.7137C4.74704 16.7137 4.29932 16.266 4.29932 15.7137V8.12794C4.29932 7.23703 5.37646 6.79086 6.00643 7.42083L7.59221 9.00662C7.98274 9.39714 8.6159 9.39714 9.00643 9.00662L11.5922 6.42083C11.9827 6.0303 12.6159 6.0303 13.0064 6.42083L15.5922 9.00662C15.9827 9.39714 16.6159 9.39714 17.0064 9.00662L18.5922 7.42083C19.2222 6.79086 20.2993 7.23703 20.2993 8.12793V15.7137C20.2993 16.266 19.8516 16.7137 19.2993 16.7137H5.29932Z" stroke="#001A72" stroke-width="1.5" stroke-linecap="round" stroke-linejoin="round"/>
</svg>
