<svg width="25" height="25" viewBox="0 0 25 25" fill="none" xmlns="http://www.w3.org/2000/svg">
<path d="M9.29932 19.2139L17.2993 3.71387" stroke="#001A72" stroke-width="1.5" stroke-linecap="round" stroke-linejoin="round"/>
<path d="M15.2993 19.2139L7.29932 3.71387" stroke="#001A72" stroke-width="1.5" stroke-linecap="round" stroke-linejoin="round"/>
<path d="M20.2993 19.2139C20.2993 20.5946 19.18 21.7139 17.7993 21.7139C16.4186 21.7139 15.2993 20.5946 15.2993 19.2139C15.2993 17.8332 16.4186 16.7139 17.7993 16.7139C19.18 16.7139 20.2993 17.8332 20.2993 19.2139Z" stroke="#001A72" stroke-width="1.5" stroke-linecap="round" stroke-linejoin="round"/>
<path d="M9.29932 19.2139C9.29932 20.5946 8.18003 21.7139 6.79932 21.7139C5.41861 21.7139 4.29932 20.5946 4.29932 19.2139C4.29932 17.8332 5.41861 16.7139 6.79932 16.7139C8.18003 16.7139 9.29932 17.8332 9.29932 19.2139Z" stroke="#001A72" stroke-width="1.5" stroke-linecap="round" stroke-linejoin="round"/>
</svg>
