<svg width="25" height="25" viewBox="0 0 25 25" fill="none" xmlns="http://www.w3.org/2000/svg">
<path d="M20.9771 15.7349L15.3203 21.3917" stroke="#001A72" stroke-width="1.5" stroke-linecap="round" stroke-linejoin="round"/>
<path d="M12.4917 18.563L18.1485 12.9062" stroke="#001A72" stroke-width="1.5" stroke-linecap="round" stroke-linejoin="round"/>
<path d="M12.4918 7.24951L6.83496 12.9064" stroke="#001A72" stroke-width="1.5" stroke-linecap="round" stroke-linejoin="round"/>
<path d="M9.66321 4.4209L4.00635 10.0777" stroke="#001A72" stroke-width="1.5" stroke-linecap="round" stroke-linejoin="round"/>
<path d="M16.0275 22.0988L15.3204 21.3917L12.4919 18.5633C10.9298 17.0012 10.9298 14.4685 12.4919 12.9064C14.054 11.3443 16.5867 11.3443 18.1488 12.9064L20.9772 15.7349L21.6843 16.442" stroke="#001A72" stroke-width="1.5" stroke-linecap="round" stroke-linejoin="round"/>
<path d="M3.29932 9.37072L4.00643 10.0778L6.83485 12.9063C8.39695 14.4684 10.9296 14.4684 12.4917 12.9063C14.0538 11.3442 14.0538 8.8115 12.4917 7.2494L9.66328 4.42097L8.95617 3.71387" stroke="#001A72" stroke-width="1.5" stroke-linecap="round" stroke-linejoin="round"/>
</svg>
