<svg width="25" height="25" viewBox="0 0 25 25" fill="none" xmlns="http://www.w3.org/2000/svg">
<path d="M15.2437 5.90137L19.2437 9.90137" stroke="#001A72" stroke-width="1.5" stroke-linecap="round" stroke-linejoin="round"/>
<path d="M15.2437 5.90137L10.2453 10.8998C9.58667 11.5585 9.06663 12.358 8.90832 13.2759C8.74847 14.2027 8.69527 15.3529 9.24376 15.9014C9.79226 16.4499 10.9424 16.3967 11.8692 16.2368C12.7871 16.0785 13.5866 15.5585 14.2453 14.8998L19.2437 9.90137C19.2437 9.90137 22.2437 6.90137 20.2437 4.90137C18.2437 2.90137 15.2437 5.90137 15.2437 5.90137Z" stroke="#001A72" stroke-width="1.5" stroke-linecap="round" stroke-linejoin="round"/>
<path d="M20.7993 12.7139C20.7993 19.2139 18.7993 21.2139 12.2993 21.2139C5.79932 21.2139 3.79932 19.2139 3.79932 12.7139C3.79932 6.21387 5.79932 4.21387 12.2993 4.21387" stroke="#001A72" stroke-width="1.5" stroke-linecap="round" stroke-linejoin="round"/>
</svg>
