<svg width="25" height="25" viewBox="0 0 25 25" fill="none" xmlns="http://www.w3.org/2000/svg">
<path d="M10.2437 10.9014L14.2437 14.9014" stroke="#001A72" stroke-width="1.5" stroke-linecap="round" stroke-linejoin="round"/>
<path d="M10.2438 10.9014L5.24532 15.8998C4.58667 16.5585 4.06663 17.358 3.90832 18.2759C3.74847 19.2027 3.69527 20.3529 4.24376 20.9014C4.79226 21.4499 5.94243 21.3967 6.86925 21.2368C7.78716 21.0785 8.58667 20.5585 9.24532 19.8998L14.2437 14.9014C14.2437 14.9014 17.2437 11.9014 15.2437 9.90137C13.2437 7.90137 10.2438 10.9014 10.2438 10.9014Z" stroke="#001A72" stroke-width="1.5" stroke-linecap="round" stroke-linejoin="round"/>
<path d="M3.79932 12.7139C3.79932 6.21387 5.79932 4.21387 12.2993 4.21387C18.7993 4.21387 20.7993 6.21387 20.7993 12.7139C20.7993 19.2139 18.7993 21.2139 12.2993 21.2139" stroke="#001A72" stroke-width="1.5" stroke-linecap="round" stroke-linejoin="round"/>
</svg>
