<svg width="25" height="25" viewBox="0 0 25 25" fill="none" xmlns="http://www.w3.org/2000/svg">
<path d="M10.0324 11.1746C10.122 10.8163 10.4018 10.5366 10.7601 10.447L14.218 9.58253C14.9503 9.39943 15.6137 10.0628 15.4306 10.7952L14.5662 14.253C14.4766 14.6113 14.1968 14.8911 13.8386 14.9806L10.3807 15.8451C9.64828 16.0282 8.98488 15.3648 9.16798 14.6324L10.0324 11.1746Z" stroke="#001A72" stroke-width="1.5" stroke-linecap="round" stroke-linejoin="round"/>
<path d="M12.2993 4.21387C5.79932 4.21387 3.79932 6.21387 3.79932 12.7139C3.79932 19.2139 5.79932 21.2139 12.2993 21.2139C18.7993 21.2139 20.7993 19.2139 20.7993 12.7139C20.7993 6.21387 18.7993 4.21387 12.2993 4.21387Z" stroke="#001A72" stroke-width="1.5" stroke-linecap="round" stroke-linejoin="round"/>
</svg>
