<svg width="25" height="25" viewBox="0 0 25 25" fill="none" xmlns="http://www.w3.org/2000/svg">
<path d="M10.0635 6.00906C10.7658 5.82111 11.5117 5.71387 12.2994 5.71387C16.0568 5.71387 18.8634 8.15427 20.532 10.1532C21.7842 11.6533 21.784 13.7748 20.5318 15.2748C20.34 15.5046 20.1331 15.7403 19.9114 15.9774" stroke="#001A72" stroke-width="1.5" stroke-linecap="round" stroke-linejoin="round"/>
<path d="M12.7993 9.75537C14.0556 9.96613 15.0471 10.9576 15.2578 12.2139" stroke="#001A72" stroke-width="1.5" stroke-linecap="round" stroke-linejoin="round"/>
<path d="M3.29932 3.71387L21.2993 21.7139" stroke="#001A72" stroke-width="1.5" stroke-linecap="round" stroke-linejoin="round"/>
<path d="M11.7995 15.6724C10.7153 15.4905 9.82833 14.7271 9.47021 13.7139" stroke="#001A72" stroke-width="1.5" stroke-linecap="round" stroke-linejoin="round"/>
<path d="M4.6487 9.49219C4.44169 9.71521 4.24777 9.93671 4.06718 10.153C2.81498 11.6531 2.81479 13.7746 4.06695 15.2747C5.7356 17.2736 8.54219 19.714 12.2996 19.714C13.1017 19.714 13.8604 19.6028 14.574 19.4084" stroke="#001A72" stroke-width="1.5" stroke-linecap="round" stroke-linejoin="round"/>
</svg>
