<svg width="25" height="25" viewBox="0 0 25 25" fill="none" xmlns="http://www.w3.org/2000/svg">
<path d="M12.2992 5.71387C8.5418 5.71387 5.73521 8.15427 4.06656 10.1532C2.8144 11.6533 2.8144 13.7745 4.06656 15.2746C5.73521 17.2735 8.5418 19.7139 12.2992 19.7139C16.0566 19.7139 18.8632 17.2735 20.5318 15.2746C21.784 13.7745 21.784 11.6533 20.5318 10.1532C18.8632 8.15427 16.0566 5.71387 12.2992 5.71387Z" stroke="#001A72" stroke-width="1.5" stroke-linecap="round" stroke-linejoin="round"/>
<path d="M12.2993 15.7139C13.9562 15.7139 15.2993 14.3708 15.2993 12.7139C15.2993 11.057 13.9562 9.71387 12.2993 9.71387C10.6424 9.71387 9.29932 11.057 9.29932 12.7139C9.29932 14.3708 10.6424 15.7139 12.2993 15.7139Z" stroke="#001A72" stroke-width="1.5" stroke-linecap="round" stroke-linejoin="round"/>
</svg>
