<svg width="25" height="25" viewBox="0 0 25 25" fill="none" xmlns="http://www.w3.org/2000/svg">
<path d="M10.2993 5.71387H4.29932" stroke="#001A72" stroke-width="1.5" stroke-linecap="round"/>
<path d="M14.2993 5.71387H20.2993" stroke="#001A72" stroke-width="1.5" stroke-linecap="round"/>
<path d="M16.2993 12.7139H4.29932" stroke="#001A72" stroke-width="1.5" stroke-linecap="round"/>
<path d="M8.29932 19.7139H20.2993" stroke="#001A72" stroke-width="1.5" stroke-linecap="round"/>
<path d="M8.29932 19.7139C8.29932 18.6093 7.40389 17.7139 6.29932 17.7139C5.19475 17.7139 4.29932 18.6093 4.29932 19.7139C4.29932 20.8185 5.19475 21.7139 6.29932 21.7139C7.40389 21.7139 8.29932 20.8185 8.29932 19.7139Z" stroke="#001A72" stroke-width="1.5" stroke-linecap="round"/>
<path d="M20.2993 12.7139C20.2993 11.6093 19.4039 10.7139 18.2993 10.7139C17.1947 10.7139 16.2993 11.6093 16.2993 12.7139C16.2993 13.8185 17.1947 14.7139 18.2993 14.7139C19.4039 14.7139 20.2993 13.8185 20.2993 12.7139Z" stroke="#001A72" stroke-width="1.5" stroke-linecap="round"/>
<path d="M14.2993 5.71387C14.2993 4.6093 13.4039 3.71387 12.2993 3.71387C11.1947 3.71387 10.2993 4.6093 10.2993 5.71387C10.2993 6.81844 11.1947 7.71387 12.2993 7.71387C13.4039 7.71387 14.2993 6.81844 14.2993 5.71387Z" stroke="#001A72" stroke-width="1.5" stroke-linecap="round"/>
</svg>
