<svg width="25" height="25" viewBox="0 0 25 25" fill="none" xmlns="http://www.w3.org/2000/svg">
<path d="M19.2993 10.7139V4.71387" stroke="#001A72" stroke-width="1.5" stroke-linecap="round"/>
<path d="M19.2993 14.7139V20.7139" stroke="#001A72" stroke-width="1.5" stroke-linecap="round"/>
<path d="M12.2993 16.7139V4.71387" stroke="#001A72" stroke-width="1.5" stroke-linecap="round"/>
<path d="M5.29932 8.71387V20.7139" stroke="#001A72" stroke-width="1.5" stroke-linecap="round"/>
<path d="M5.29932 8.71387C6.40389 8.71387 7.29932 7.81844 7.29932 6.71387C7.29932 5.6093 6.40389 4.71387 5.29932 4.71387C4.19475 4.71387 3.29932 5.6093 3.29932 6.71387C3.29932 7.81844 4.19475 8.71387 5.29932 8.71387Z" stroke="#001A72" stroke-width="1.5" stroke-linecap="round"/>
<path d="M12.2993 20.7139C13.4039 20.7139 14.2993 19.8185 14.2993 18.7139C14.2993 17.6093 13.4039 16.7139 12.2993 16.7139C11.1947 16.7139 10.2993 17.6093 10.2993 18.7139C10.2993 19.8185 11.1947 20.7139 12.2993 20.7139Z" stroke="#001A72" stroke-width="1.5" stroke-linecap="round"/>
<path d="M19.2993 14.7139C20.4039 14.7139 21.2993 13.8185 21.2993 12.7139C21.2993 11.6093 20.4039 10.7139 19.2993 10.7139C18.1947 10.7139 17.2993 11.6093 17.2993 12.7139C17.2993 13.8185 18.1947 14.7139 19.2993 14.7139Z" stroke="#001A72" stroke-width="1.5" stroke-linecap="round"/>
</svg>
