<svg width="25" height="25" viewBox="0 0 25 25" fill="none" xmlns="http://www.w3.org/2000/svg">
<path d="M10.7993 6.71387C10.7993 6.71387 10.5829 7.57939 10.4349 9.31042C10.3578 10.2108 10.2993 11.3453 10.2993 12.7139C10.2993 14.0912 10.3586 15.2314 10.4363 16.1345C10.5844 17.8541 10.7993 18.7139 10.7993 18.7139C10.7993 18.7139 12.7993 18.2139 16.2993 16.2139C19.7993 14.2139 20.7993 12.7139 20.7993 12.7139C20.7993 12.7139 19.7993 11.2139 16.2993 9.21387C12.7993 7.21387 10.7993 6.71387 10.7993 6.71387Z" stroke="#001A72" stroke-width="1.5" stroke-linecap="round" stroke-linejoin="round"/>
<path d="M10.4363 16.1345C8.69165 17.1454 6.77624 18.2197 4.79932 18.7139C4.79932 18.7139 4.29932 16.7139 4.29932 12.7139C4.29932 8.71387 4.79932 6.71387 4.79932 6.71387C6.70248 7.18966 8.85336 8.1839 10.4349 9.31042" stroke="#001A72" stroke-width="1.5" stroke-linecap="round" stroke-linejoin="round"/>
</svg>
