<svg width="25" height="25" viewBox="0 0 25 25" fill="none" xmlns="http://www.w3.org/2000/svg">
<path d="M18.7993 10.5991C18.7993 10.5991 19.2993 12.3252 19.2993 15.2141C19.2993 18.103 18.9104 20.6308 18.5215 20.9919C18.1326 21.353 15.4104 21.7141 12.2993 21.7141C9.18821 21.7141 6.46599 21.353 6.0771 20.9919C5.68821 20.6308 5.29932 18.103 5.29932 15.2141C5.29932 12.3252 5.79932 10.5991 5.79932 10.5991" stroke="#001A72" stroke-width="1.5" stroke-linecap="round" stroke-linejoin="round"/>
<path d="M12.2993 7.71387C8.74376 7.71387 5.63265 7.7972 5.18821 7.88054C4.74376 7.96387 4.29932 8.5472 4.29932 9.21387C4.29932 9.88054 4.74376 10.4639 5.18821 10.5472C5.28143 10.5647 5.49197 10.5822 5.79932 10.5989C6.9573 10.6618 9.48953 10.7139 12.2993 10.7139C15.1091 10.7139 17.6413 10.6618 18.7993 10.5989C19.1067 10.5822 19.3172 10.5647 19.4104 10.5472C19.8549 10.4639 20.2993 9.88054 20.2993 9.21387C20.2993 8.5472 19.8549 7.96387 19.4104 7.88054C18.966 7.7972 15.8549 7.71387 12.2993 7.71387Z" stroke="#001A72" stroke-width="1.5" stroke-linecap="round" stroke-linejoin="round"/>
<path d="M12.165 7.5639C12.7141 5.51499 15.8611 1.96578 17.3612 4.5639C18.8613 7.16214 14.2141 8.11307 12.165 7.5639Z" stroke="#001A72" stroke-width="1.5" stroke-linecap="round" stroke-linejoin="round"/>
<path d="M12.3616 7.5639C11.8125 5.51499 8.66554 1.96578 7.16552 4.5639C5.66542 7.16214 10.3125 8.11307 12.3616 7.5639Z" stroke="#001A72" stroke-width="1.5" stroke-linecap="round" stroke-linejoin="round"/>
</svg>
