<svg width="25" height="25" viewBox="0 0 25 25" fill="none" xmlns="http://www.w3.org/2000/svg">
<path d="M6.79932 3.71387C5.24376 3.71387 3.88265 4.21387 3.68821 4.71387C3.49376 5.21387 3.29932 8.71387 3.29932 12.7139C3.29932 16.7139 3.49376 20.2139 3.68821 20.7139C3.88265 21.2139 5.24376 21.7139 6.79932 21.7139C8.35488 21.7139 9.71599 21.2139 9.91043 20.7139C10.1049 20.2139 10.2993 16.7139 10.2993 12.7139C10.2993 8.71387 10.1049 5.21387 9.91043 4.71387C9.71599 4.21387 8.35488 3.71387 6.79932 3.71387Z" stroke="#001A72" stroke-width="1.5" stroke-linecap="round" stroke-linejoin="round"/>
<path d="M17.7993 3.71387C16.2437 3.71387 14.8826 4.21387 14.6882 4.71387C14.4937 5.21387 14.2993 8.71387 14.2993 12.7139C14.2993 16.7139 14.4937 20.2139 14.6882 20.7139C14.8826 21.2139 16.2437 21.7139 17.7993 21.7139C19.3549 21.7139 20.716 21.2139 20.9104 20.7139C21.1049 20.2139 21.2993 16.7139 21.2993 12.7139C21.2993 8.71387 21.1049 5.21387 20.9104 4.71387C20.716 4.21387 19.3549 3.71387 17.7993 3.71387Z" stroke="#001A72" stroke-width="1.5" stroke-linecap="round" stroke-linejoin="round"/>
</svg>
