<svg width="25" height="25" viewBox="0 0 25 25" fill="none" xmlns="http://www.w3.org/2000/svg">
<path d="M7.04932 3.71387C4.18167 3.71387 3.29932 4.59622 3.29932 7.46387C3.29932 10.3315 4.18167 11.2139 7.04932 11.2139C9.91697 11.2139 10.7993 10.3315 10.7993 7.46387C10.7993 4.59622 9.91697 3.71387 7.04932 3.71387Z" stroke="#001A72" stroke-width="1.5" stroke-linecap="round" stroke-linejoin="round"/>
<path d="M7.04932 14.2139C4.18167 14.2139 3.29932 15.0963 3.29932 17.9639C3.29932 20.8315 4.18167 21.7139 7.04932 21.7139C9.91697 21.7139 10.7993 20.8315 10.7993 17.9639C10.7993 15.0963 9.91697 14.2139 7.04932 14.2139Z" stroke="#001A72" stroke-width="1.5" stroke-linecap="round" stroke-linejoin="round"/>
<path d="M17.5493 14.2139C14.6817 14.2139 13.7993 15.0963 13.7993 17.9639C13.7993 20.8315 14.6817 21.7139 17.5493 21.7139C20.4169 21.7139 21.2993 20.8315 21.2993 17.9639C21.2993 15.0963 20.4169 14.2139 17.5493 14.2139Z" stroke="#001A72" stroke-width="1.5" stroke-linecap="round" stroke-linejoin="round"/>
<path d="M17.5493 3.71387C14.6817 3.71387 13.7993 4.59622 13.7993 7.46387C13.7993 10.3315 14.6817 11.2139 17.5493 11.2139C20.4169 11.2139 21.2993 10.3315 21.2993 7.46387C21.2993 4.59622 20.4169 3.71387 17.5493 3.71387Z" stroke="#001A72" stroke-width="1.5" stroke-linecap="round" stroke-linejoin="round"/>
</svg>
