<svg width="25" height="25" viewBox="0 0 25 25" fill="none" xmlns="http://www.w3.org/2000/svg">
<path d="M3.29932 7.21387C3.29932 8.76943 3.79932 10.1305 4.29932 10.325C4.79932 10.5194 8.29932 10.7139 12.2993 10.7139C16.2993 10.7139 19.7993 10.5194 20.2993 10.325C20.7993 10.1305 21.2993 8.76942 21.2993 7.21387C21.2993 5.65831 20.7993 4.2972 20.2993 4.10276C19.7993 3.90831 16.2993 3.71387 12.2993 3.71387C8.29932 3.71387 4.79932 3.90831 4.29932 4.10276C3.79932 4.2972 3.29932 5.65831 3.29932 7.21387Z" stroke="#001A72" stroke-width="1.5" stroke-linecap="round" stroke-linejoin="round"/>
<path d="M3.29932 18.2139C3.29932 19.7695 3.79932 21.1306 4.29932 21.325C4.79932 21.5195 8.29932 21.7139 12.2993 21.7139C16.2993 21.7139 19.7993 21.5195 20.2993 21.325C20.7993 21.1306 21.2993 19.7695 21.2993 18.2139C21.2993 16.6583 20.7993 15.2972 20.2993 15.1028C19.7993 14.9083 16.2993 14.7139 12.2993 14.7139C8.29932 14.7139 4.79932 14.9083 4.29932 15.1028C3.79932 15.2972 3.29932 16.6583 3.29932 18.2139Z" stroke="#001A72" stroke-width="1.5" stroke-linecap="round" stroke-linejoin="round"/>
</svg>
