<svg width="25" height="25" viewBox="0 0 25 25" fill="none" xmlns="http://www.w3.org/2000/svg">
<path d="M6.7994 7.71378C8.26075 6.25243 9.89294 5.13277 10.9969 4.45466C11.8015 3.96043 12.7972 3.96043 13.6018 4.45466C14.7058 5.13277 16.338 6.25243 17.7994 7.71378C20.9677 10.8822 20.7994 12.7138 20.7994 15.7138C20.7994 17.1236 20.6889 18.3126 20.5719 19.177C20.4487 20.0864 19.6555 20.7138 18.7378 20.7138H17.2994C16.1948 20.7138 15.2994 19.8184 15.2994 18.7138V16.7138C15.2994 15.9181 14.9833 15.1551 14.4207 14.5925C13.8581 14.0299 13.095 13.7138 12.2994 13.7138C11.5037 13.7138 10.7407 14.0299 10.1781 14.5925C9.61547 15.1551 9.2994 15.9181 9.2994 16.7138V18.7138C9.2994 19.8184 8.40397 20.7138 7.2994 20.7138H5.86096C4.94322 20.7138 4.15005 20.0864 4.02689 19.1769C3.90983 18.3126 3.79941 17.1236 3.79941 15.7138C3.79941 12.7138 3.63101 10.8822 6.7994 7.71378Z" stroke="#001A72" stroke-width="1.5" stroke-linecap="round" stroke-linejoin="round"/>
</svg>
