<svg width="25" height="25" viewBox="0 0 25 25" fill="none" xmlns="http://www.w3.org/2000/svg">
<path d="M6.7994 7.71378C8.26075 6.25243 9.89295 5.13277 10.9969 4.45465C11.8015 3.96043 12.7973 3.96043 13.6019 4.45466C14.7058 5.13277 16.338 6.25243 17.7994 7.71378C20.9678 10.8821 20.7994 12.7138 20.7994 15.7138C20.7994 17.1236 20.689 18.3126 20.5719 19.1769C20.4487 20.0864 19.6556 20.7138 18.7378 20.7138H5.86096C4.94323 20.7138 4.15006 20.0863 4.02689 19.1769C3.90983 18.3126 3.79941 17.1236 3.79941 15.7138C3.79941 12.7138 3.63101 10.8822 6.7994 7.71378Z" stroke="#001A72" stroke-width="1.5" stroke-linecap="round" stroke-linejoin="round"/>
<path d="M12.2993 10.7139V16.7139" stroke="#001A72" stroke-width="1.5" stroke-linecap="round" stroke-linejoin="round"/>
<path d="M9.29932 13.7139H15.2993" stroke="#001A72" stroke-width="1.5" stroke-linecap="round" stroke-linejoin="round"/>
</svg>
