<svg width="25" height="25" viewBox="0 0 25 25" fill="none" xmlns="http://www.w3.org/2000/svg">
<path d="M7.29932 20.9639V17.8195C7.29932 17.4246 7.4162 17.0386 7.63522 16.7101L9.55972 13.8233C10.0076 13.1515 10.0076 12.2763 9.55972 11.6045L7.63522 8.71772C7.4162 8.38918 7.29932 8.00317 7.29932 7.60832V4.46387" stroke="#001A72" stroke-width="1.5" stroke-linecap="round" stroke-linejoin="round"/>
<path d="M17.2994 20.9639V17.8195C17.2994 17.4246 17.1826 17.0386 16.9636 16.7101L15.039 13.8233C14.5911 13.1515 14.5911 12.2763 15.039 11.6045L16.9636 8.71772C17.1826 8.38918 17.2994 8.00317 17.2994 7.60832V4.46387" stroke="#001A72" stroke-width="1.5" stroke-linecap="round" stroke-linejoin="round"/>
<path d="M5.29932 20.7139C5.29932 20.7139 6.04932 20.8389 7.29932 20.9639C8.54932 21.0889 10.2993 21.2139 12.2993 21.2139C14.2993 21.2139 16.0493 21.0889 17.2993 20.9639C18.5493 20.8389 19.2993 20.7139 19.2993 20.7139" stroke="#001A72" stroke-width="1.5" stroke-linecap="round" stroke-linejoin="round"/>
<path d="M5.29932 4.71387C5.29932 4.71387 6.04932 4.58887 7.29932 4.46387C8.54932 4.33887 10.2993 4.21387 12.2993 4.21387C14.2993 4.21387 16.0493 4.33887 17.2993 4.46387C18.5493 4.58887 19.2993 4.71387 19.2993 4.71387" stroke="#001A72" stroke-width="1.5" stroke-linecap="round" stroke-linejoin="round"/>
</svg>
