<svg width="25" height="25" viewBox="0 0 25 25" fill="none" xmlns="http://www.w3.org/2000/svg">
<path d="M9.29932 20.7139L12.2993 17.7139L15.2993 20.7139" stroke="#001A72" stroke-width="1.5" stroke-linecap="round" stroke-linejoin="round"/>
<path d="M15.2993 4.71387L12.2993 7.71387L9.29932 4.71387" stroke="#001A72" stroke-width="1.5" stroke-linecap="round" stroke-linejoin="round"/>
<path d="M12.2993 3.71387V7.71387V12.7139V17.7139V21.7139" stroke="#001A72" stroke-width="1.5" stroke-linecap="round" stroke-linejoin="round"/>
<path d="M17.7275 19.3118L16.6294 15.2137L20.7275 14.1157" stroke="#001A72" stroke-width="1.5" stroke-linecap="round" stroke-linejoin="round"/>
<path d="M6.87109 6.11572L7.96916 10.2138L3.87109 11.3119" stroke="#001A72" stroke-width="1.5" stroke-linecap="round" stroke-linejoin="round"/>
<path d="M4.50488 8.21387L7.96898 10.2139L12.2991 12.7139L16.6293 15.2139L20.0934 17.2139" stroke="#001A72" stroke-width="1.5" stroke-linecap="round" stroke-linejoin="round"/>
<path d="M20.7275 11.3119L16.6294 10.2138L17.7275 6.11572" stroke="#001A72" stroke-width="1.5" stroke-linecap="round" stroke-linejoin="round"/>
<path d="M3.87109 14.1157L7.96916 15.2137L6.87109 19.3118" stroke="#001A72" stroke-width="1.5" stroke-linecap="round" stroke-linejoin="round"/>
<path d="M4.50488 17.2139L7.96898 15.2139L12.2991 12.7139L16.6293 10.2139L20.0934 8.21387" stroke="#001A72" stroke-width="1.5" stroke-linecap="round" stroke-linejoin="round"/>
</svg>
