<svg width="25" height="25" viewBox="0 0 25 25" fill="none" xmlns="http://www.w3.org/2000/svg">
<path d="M12.2993 4.21387C5.79932 4.21387 3.79932 6.21387 3.79932 12.7139C3.79932 15.1427 4.07856 16.9431 4.76746 18.2458C5.92223 20.4293 8.22808 21.2139 12.2993 21.2139C17.9248 21.2139 20.1797 19.7159 20.6846 15.0992C20.7631 14.3815 20.7993 13.5884 20.7993 12.7139C20.7993 6.21387 18.7993 4.21387 12.2993 4.21387Z" stroke="#001A72" stroke-width="1.5" stroke-linecap="round" stroke-linejoin="round"/>
<path fill-rule="evenodd" clip-rule="evenodd" d="M10.9903 9.55987C10.9903 10.5789 10.1633 11.4059 9.14432 11.4059C8.12632 11.4059 7.29932 10.5789 7.29932 9.55987C7.29932 8.54087 8.12632 7.71387 9.14432 7.71387C10.1633 7.71387 10.9903 8.54087 10.9903 9.55987Z" stroke="#001A72" stroke-width="1.5" stroke-linecap="round" stroke-linejoin="round"/>
<path d="M4.76758 18.2459L7.88523 15.1282C8.66628 14.3472 9.93261 14.3472 10.7136 15.1282L10.8852 15.2998C11.6662 16.0808 12.9326 16.0808 13.7136 15.2998L15.8852 13.1282C16.6662 12.3472 17.9326 12.3472 18.7136 13.1282L20.6847 15.0993" stroke="#001A72" stroke-width="1.5" stroke-linecap="round" stroke-linejoin="round"/>
</svg>
