<svg width="25" height="25" viewBox="0 0 25 25" fill="none" xmlns="http://www.w3.org/2000/svg">
<path d="M21.2993 12.7139H17.3697C16.701 12.7139 16.0765 13.0481 15.7056 13.6045L14.893 14.8233C14.5221 15.3797 13.8976 15.7139 13.2289 15.7139H11.5354C10.7778 15.7139 10.0853 15.2859 9.74653 14.6083L9.35211 13.8195C9.01332 13.1419 8.3208 12.7139 7.56325 12.7139H3.29932" stroke="#001A72" stroke-width="1.5" stroke-linecap="round" stroke-linejoin="round"/>
<path d="M21.2993 18.7139V12.7139L18.786 6.01162C18.4932 5.23102 17.747 4.71387 16.9133 4.71387H7.68532C6.85163 4.71387 6.10539 5.23102 5.81266 6.01162L3.29932 12.7139V18.7139C3.29932 19.8185 4.19475 20.7139 5.29932 20.7139H19.2993C20.4039 20.7139 21.2993 19.8185 21.2993 18.7139Z" stroke="#001A72" stroke-width="1.5" stroke-linecap="round" stroke-linejoin="round"/>
</svg>
