<svg width="25" height="25" viewBox="0 0 25 25" fill="none" xmlns="http://www.w3.org/2000/svg">
<path d="M20.2993 17.0985C20.7993 16.7908 21.2993 14.1754 21.2993 11.7139C21.2993 9.25233 20.7993 6.63695 20.2993 6.32925C19.7993 6.02156 16.2993 5.71387 12.2993 5.71387C8.29932 5.71387 4.79932 6.02156 4.29932 6.32925C3.79932 6.63695 3.29932 9.25233 3.29932 11.7139C3.29932 14.1754 3.79932 16.7908 4.29932 17.0985" stroke="#001A72" stroke-width="1.5" stroke-linecap="round" stroke-linejoin="round"/>
<path d="M20.5493 17.2139H4.04932C3.35896 17.2139 2.79932 17.7735 2.79932 18.4639C2.79932 19.1543 3.35896 19.7139 4.04932 19.7139H20.5493C21.2397 19.7139 21.7993 19.1543 21.7993 18.4639C21.7993 17.7735 21.2397 17.2139 20.5493 17.2139Z" stroke="#001A72" stroke-width="1.5" stroke-linecap="round" stroke-linejoin="round"/>
</svg>
