<svg width="25" height="25" viewBox="0 0 25 25" fill="none" xmlns="http://www.w3.org/2000/svg">
<path d="M13.1152 21.3216C17.1502 19.2641 20.2993 15.8568 20.2993 11.7139C20.2993 7.29559 16.7176 3.71387 12.2993 3.71387C7.88104 3.71387 4.29932 7.29559 4.29932 11.7139C4.29932 15.8568 7.44841 19.2641 11.4834 21.3216C11.9961 21.583 12.6025 21.583 13.1152 21.3216Z" stroke="#001A72" stroke-width="1.5" stroke-linecap="round" stroke-linejoin="round"/>
<path d="M15.2993 11.7139C15.2993 13.3708 13.9562 14.7139 12.2993 14.7139C10.6424 14.7139 9.29932 13.3708 9.29932 11.7139C9.29932 10.057 10.6424 8.71387 12.2993 8.71387C13.9562 8.71387 15.2993 10.057 15.2993 11.7139Z" stroke="#001A72" stroke-width="1.5" stroke-linecap="round" stroke-linejoin="round"/>
</svg>
