<svg width="25" height="25" viewBox="0 0 25 25" fill="none" xmlns="http://www.w3.org/2000/svg">
<path d="M4.50336 15.7139C3.73759 16.3022 3.29932 16.9853 3.29932 17.7139C3.29932 19.923 7.32876 21.7139 12.2993 21.7139C17.2699 21.7139 21.2993 19.923 21.2993 17.7139C21.2993 16.9853 20.861 16.3022 20.0953 15.7139" stroke="#001A72" stroke-width="1.5" stroke-linecap="round" stroke-linejoin="round"/>
<path d="M12.2993 17.7139C15.613 16.1583 18.2993 13.3726 18.2993 9.93609C18.2993 6.49965 15.613 3.71387 12.2993 3.71387C8.98561 3.71387 6.29932 6.49965 6.29932 9.93609C6.29932 13.3726 8.98561 16.1583 12.2993 17.7139Z" stroke="#001A72" stroke-width="1.5" stroke-linecap="round" stroke-linejoin="round"/>
<path d="M12.2993 7.21387V12.2139" stroke="#001A72" stroke-width="1.5" stroke-linecap="round" stroke-linejoin="round"/>
<path d="M9.79932 9.71387H14.7993" stroke="#001A72" stroke-width="1.5" stroke-linecap="round" stroke-linejoin="round"/>
</svg>
