<svg width="25" height="25" viewBox="0 0 25 25" fill="none" xmlns="http://www.w3.org/2000/svg">
<path d="M9.29932 14.7139H15.2993" stroke="#001A72" stroke-width="1.5" stroke-linecap="round" stroke-linejoin="round"/>
<path d="M12.2993 11.7139V17.7139" stroke="#001A72" stroke-width="1.5" stroke-linecap="round" stroke-linejoin="round"/>
<path d="M6.29932 14.1859C6.29932 13.8754 6.37161 13.5691 6.51047 13.2914L7.35581 11.6007C7.97629 10.3598 8.29932 8.99144 8.29932 7.604M16.2993 7.604C16.2993 8.99144 16.6223 10.3598 17.2428 11.6007L18.0882 13.2914C18.227 13.5691 18.2993 13.8754 18.2993 14.1859V17.7137C18.2993 19.9229 16.5084 21.7137 14.2993 21.7137H10.2993C8.09018 21.7137 6.29932 19.9229 6.29932 17.7137V14.2137" stroke="#001A72" stroke-width="1.5" stroke-linecap="round" stroke-linejoin="round"/>
<path d="M12.2993 4.71387C10.0771 4.71387 8.13265 4.7972 7.85488 4.88054C7.5771 4.96387 7.29932 5.5472 7.29932 6.21387C7.29932 6.88054 7.5771 7.46387 7.85488 7.5472C7.91926 7.56652 8.07317 7.58583 8.29932 7.60411C9.04891 7.66469 10.5921 7.71387 12.2993 7.71387C14.0065 7.71387 15.5497 7.66469 16.2993 7.60411C16.5255 7.58583 16.6794 7.56652 16.7437 7.5472C17.0215 7.46387 17.2993 6.88054 17.2993 6.21387C17.2993 5.5472 17.0215 4.96387 16.7437 4.88054C16.466 4.7972 14.5215 4.71387 12.2993 4.71387Z" stroke="#001A72" stroke-width="1.5" stroke-linecap="round" stroke-linejoin="round"/>
</svg>
