<svg width="25" height="25" viewBox="0 0 25 25" fill="none" xmlns="http://www.w3.org/2000/svg">
<path d="M13.2993 5.71387C13.2993 5.16159 12.8516 4.71387 12.2993 4.71387C11.747 4.71387 11.2993 5.16159 11.2993 5.71387C11.2993 6.26615 11.747 6.71387 12.2993 6.71387C12.8516 6.71387 13.2993 6.26615 13.2993 5.71387Z" stroke="#001A72" stroke-width="1.5" stroke-linecap="round" stroke-linejoin="round"/>
<path d="M13.2993 12.7139C13.2993 12.1616 12.8516 11.7139 12.2993 11.7139C11.747 11.7139 11.2993 12.1616 11.2993 12.7139C11.2993 13.2662 11.747 13.7139 12.2993 13.7139C12.8516 13.7139 13.2993 13.2662 13.2993 12.7139Z" stroke="#001A72" stroke-width="1.5" stroke-linecap="round" stroke-linejoin="round"/>
<path d="M13.2993 19.7139C13.2993 19.1616 12.8516 18.7139 12.2993 18.7139C11.747 18.7139 11.2993 19.1616 11.2993 19.7139C11.2993 20.2662 11.747 20.7139 12.2993 20.7139C12.8516 20.7139 13.2993 20.2662 13.2993 19.7139Z" stroke="#001A72" stroke-width="1.5" stroke-linecap="round" stroke-linejoin="round"/>
</svg>
