<svg width="25" height="25" viewBox="0 0 25 25" fill="none" xmlns="http://www.w3.org/2000/svg">
<path d="M19.2993 13.7139C19.8516 13.7139 20.2993 13.2662 20.2993 12.7139C20.2993 12.1616 19.8516 11.7139 19.2993 11.7139C18.747 11.7139 18.2993 12.1616 18.2993 12.7139C18.2993 13.2662 18.747 13.7139 19.2993 13.7139Z" stroke="#001A72" stroke-width="1.5" stroke-linecap="round" stroke-linejoin="round"/>
<path d="M12.2993 13.7139C12.8516 13.7139 13.2993 13.2662 13.2993 12.7139C13.2993 12.1616 12.8516 11.7139 12.2993 11.7139C11.747 11.7139 11.2993 12.1616 11.2993 12.7139C11.2993 13.2662 11.747 13.7139 12.2993 13.7139Z" stroke="#001A72" stroke-width="1.5" stroke-linecap="round" stroke-linejoin="round"/>
<path d="M5.29932 13.7139C5.8516 13.7139 6.29932 13.2662 6.29932 12.7139C6.29932 12.1616 5.8516 11.7139 5.29932 11.7139C4.74704 11.7139 4.29932 12.1616 4.29932 12.7139C4.29932 13.2662 4.74704 13.7139 5.29932 13.7139Z" stroke="#001A72" stroke-width="1.5" stroke-linecap="round" stroke-linejoin="round"/>
</svg>
