<svg width="25" height="25" viewBox="0 0 25 25" fill="none" xmlns="http://www.w3.org/2000/svg">
<path d="M12.2993 7.71387C8.0771 7.71387 4.38265 7.99165 3.85488 8.26943C3.3271 8.5472 2.79932 10.4916 2.79932 12.7139C2.79932 14.9361 3.3271 16.8806 3.85488 17.1583C4.38265 17.4361 8.0771 17.7139 12.2993 17.7139C16.5215 17.7139 20.216 17.4361 20.7437 17.1583C21.2715 16.8806 21.7993 14.9361 21.7993 12.7139C21.7993 10.4916 21.2715 8.5472 20.7437 8.26943C20.216 7.99165 16.5215 7.71387 12.2993 7.71387Z" stroke="#001A72" stroke-width="1.5" stroke-linecap="round" stroke-linejoin="round"/>
<path d="M6.29932 10.2139V15.2139" stroke="#001A72" stroke-width="1.5" stroke-linecap="round" stroke-linejoin="round"/>
<path d="M14.7993 12.7139C14.7993 14.0946 13.68 15.2139 12.2993 15.2139C10.9186 15.2139 9.79932 14.0946 9.79932 12.7139C9.79932 11.3332 10.9186 10.2139 12.2993 10.2139C13.68 10.2139 14.7993 11.3332 14.7993 12.7139Z" stroke="#001A72" stroke-width="1.5" stroke-linecap="round" stroke-linejoin="round"/>
<path d="M18.2993 10.2139V15.2139" stroke="#001A72" stroke-width="1.5" stroke-linecap="round" stroke-linejoin="round"/>
</svg>
