<svg width="25" height="25" viewBox="0 0 25 25" fill="none" xmlns="http://www.w3.org/2000/svg">
<path d="M9.29932 18.2139C9.29932 18.2139 8.79932 14.2139 8.79932 11.7139C8.79932 9.21387 9.29932 6.71387 9.29932 6.71387C9.29932 6.71387 11.2993 5.71387 14.7993 4.71387C18.2993 3.71387 20.2993 3.71387 20.2993 3.71387C20.2993 3.71387 19.7993 7.21387 19.7993 9.71387C19.7993 12.2139 20.2993 17.2139 20.2993 17.2139" stroke="#001A72" stroke-width="1.5" stroke-linecap="round" stroke-linejoin="round"/>
<path d="M20.2993 17.2139C20.2993 18.5946 19.18 19.7139 17.7993 19.7139C16.4186 19.7139 15.2993 18.5946 15.2993 17.2139C15.2993 15.8332 16.4186 14.7139 17.7993 14.7139C19.18 14.7139 20.2993 15.8332 20.2993 17.2139Z" stroke="#001A72" stroke-width="1.5" stroke-linecap="round" stroke-linejoin="round"/>
<path d="M9.29932 18.2139C9.29932 19.5946 8.18003 20.7139 6.79932 20.7139C5.41861 20.7139 4.29932 19.5946 4.29932 18.2139C4.29932 16.8332 5.41861 15.7139 6.79932 15.7139C8.18003 15.7139 9.29932 16.8332 9.29932 18.2139Z" stroke="#001A72" stroke-width="1.5" stroke-linecap="round" stroke-linejoin="round"/>
</svg>
