<svg width="25" height="25" viewBox="0 0 25 25" fill="none" xmlns="http://www.w3.org/2000/svg">
<path d="M12.2993 21.7139C17.2699 21.7139 21.2993 17.6845 21.2993 12.7139C21.2993 7.74331 17.2699 3.71387 12.2993 3.71387C7.32876 3.71387 3.29932 7.74331 3.29932 12.7139C3.29932 17.6845 7.32876 21.7139 12.2993 21.7139Z" stroke="#001A72" stroke-width="1.5" stroke-linecap="round" stroke-linejoin="round"/>
<path d="M17.2993 15.7139C17.2993 16.8185 16.4039 17.7139 15.2993 17.7139C14.1947 17.7139 13.2993 16.8185 13.2993 15.7139C13.2993 14.6093 14.1947 13.7139 15.2993 13.7139C16.4039 13.7139 17.2993 14.6093 17.2993 15.7139Z" stroke="#001A72" stroke-width="1.5" stroke-linecap="round" stroke-linejoin="round"/>
<path d="M8.29932 16.7139L16.2993 8.71387" stroke="#001A72" stroke-width="1.5" stroke-linecap="round" stroke-linejoin="round"/>
<path d="M11.2993 9.71387C11.2993 10.8185 10.4039 11.7139 9.29932 11.7139C8.19475 11.7139 7.29932 10.8185 7.29932 9.71387C7.29932 8.6093 8.19475 7.71387 9.29932 7.71387C10.4039 7.71387 11.2993 8.6093 11.2993 9.71387Z" stroke="#001A72" stroke-width="1.5" stroke-linecap="round" stroke-linejoin="round"/>
</svg>
