<svg width="25" height="25" viewBox="0 0 25 25" fill="none" xmlns="http://www.w3.org/2000/svg">
<path d="M5.79932 9.52246C5.79932 9.52246 5.29932 11.3252 5.29932 14.2141C5.29932 17.103 5.68821 19.6308 6.0771 19.9919C6.46599 20.353 9.18821 20.7141 12.2993 20.7141C15.4104 20.7141 18.1326 20.353 18.5215 19.9919C18.9104 19.6308 19.2993 17.103 19.2993 14.2141C19.2993 11.3252 18.7993 9.52246 18.7993 9.52246" stroke="#001A72" stroke-width="1.5" stroke-linecap="round" stroke-linejoin="round"/>
<path d="M12.2993 4.71387C8.74376 4.71387 5.63265 4.85276 5.18821 4.99165C4.74376 5.13054 4.29932 6.10276 4.29932 7.21387C4.29932 8.32498 4.74376 9.2972 5.18821 9.43609C5.28143 9.46522 5.49197 9.49436 5.79932 9.52221C6.9573 9.62713 9.48953 9.71387 12.2993 9.71387C15.1091 9.71387 17.6413 9.62713 18.7993 9.52221C19.1067 9.49436 19.3172 9.46522 19.4104 9.43609C19.8549 9.2972 20.2993 8.32498 20.2993 7.21387C20.2993 6.10276 19.8549 5.13054 19.4104 4.99165C18.966 4.85276 15.8549 4.71387 12.2993 4.71387Z" stroke="#001A72" stroke-width="1.5" stroke-linecap="round" stroke-linejoin="round"/>
<path d="M10.2993 13.7139C10.2993 13.7139 10.7993 13.2139 12.2993 13.2139C13.7993 13.2139 14.2993 13.7139 14.2993 13.7139" stroke="#001A72" stroke-width="1.5" stroke-linecap="round" stroke-linejoin="round"/>
</svg>
