<svg width="25" height="25" viewBox="0 0 25 25" fill="none" xmlns="http://www.w3.org/2000/svg">
<path d="M15.2993 3.71387C16.8308 3.88401 18.209 4.62494 19.2993 5.71387C20.3896 6.8028 21.1272 8.18256 21.2993 9.71387" stroke="#001A72" stroke-width="1.5" stroke-linecap="round" stroke-linejoin="round"/>
<path d="M14.7993 7.21387C15.5365 7.35769 16.2682 7.68279 16.7993 8.21387C17.3304 8.74495 17.6555 9.47671 17.7993 10.2139" stroke="#001A72" stroke-width="1.5" stroke-linecap="round" stroke-linejoin="round"/>
<path fill-rule="evenodd" clip-rule="evenodd" d="M8.49981 16.5129C1.60182 9.61409 2.5827 6.45502 3.30987 5.43703C3.40328 5.27249 5.70579 1.82575 8.17391 3.84794C14.3001 8.89332 6.79932 8.71387 11.6887 13.3252C16.5781 17.9365 16.1207 10.7138 21.1652 16.8388C23.1875 19.3079 19.7406 21.6103 19.5771 21.7027C18.5591 22.4309 15.3988 23.4117 8.49981 16.5129Z" stroke="#001A72" stroke-width="1.5" stroke-linecap="round" stroke-linejoin="round"/>
</svg>
