<svg width="25" height="25" viewBox="0 0 25 25" fill="none" xmlns="http://www.w3.org/2000/svg">
<path d="M12.2993 15.7139C10.5215 15.7139 8.96599 15.8806 8.74376 16.0472C8.52154 16.2139 8.29932 17.3806 8.29932 18.7139C8.29932 20.0472 8.52154 21.2139 8.74376 21.3806C8.96599 21.5472 10.5215 21.7139 12.2993 21.7139C14.0771 21.7139 15.6326 21.5472 15.8549 21.3806C16.0771 21.2139 16.2993 20.0472 16.2993 18.7139C16.2993 17.3806 16.0771 16.2139 15.8549 16.0472C15.6326 15.8806 14.0771 15.7139 12.2993 15.7139Z" stroke="#001A72" stroke-width="1.5" stroke-linecap="round" stroke-linejoin="round"/>
<path d="M8.29932 18.7139C8.29932 18.7139 4.79932 18.4639 4.29932 18.2139C3.79932 17.9639 3.29932 16.2139 3.29932 14.2139C3.29932 12.2139 3.79932 10.4639 4.29932 10.2139C4.61977 10.0536 6.17248 9.89342 8.29932 9.79901C9.491 9.74611 10.8629 9.71387 12.2993 9.71387C13.7357 9.71387 15.1076 9.74611 16.2993 9.79901C18.4261 9.89342 19.9789 10.0536 20.2993 10.2139C20.7993 10.4639 21.2993 12.2139 21.2993 14.2139C21.2993 16.2139 20.7993 17.9639 20.2993 18.2139C19.7993 18.4639 16.2993 18.7139 16.2993 18.7139" stroke="#001A72" stroke-width="1.5" stroke-linecap="round" stroke-linejoin="round"/>
<path d="M8.29932 9.79901V7.71387C8.29932 5.93609 8.52154 4.38054 8.74376 4.15831C8.96599 3.93609 10.5215 3.71387 12.2993 3.71387C14.0771 3.71387 15.6326 3.93609 15.8549 4.15831C16.0771 4.38054 16.2993 5.93609 16.2993 7.71387V9.79901" stroke="#001A72" stroke-width="1.5" stroke-linecap="round" stroke-linejoin="round"/>
</svg>
