<svg width="25" height="25" viewBox="0 0 25 25" fill="none" xmlns="http://www.w3.org/2000/svg">
<path d="M8.13281 14.314C8.55751 15.1171 9.27892 15.7816 10.1884 16.2074C11.0978 16.6331 12.146 16.797 13.175 16.6744C14.204 16.5518 15.1581 16.1493 15.8935 15.5276L17.2995 14.4591" stroke="#001A72" stroke-width="1.5" stroke-linecap="round" stroke-linejoin="round"/>
<path d="M17.2993 16.714V14.314H14.7993" stroke="#001A72" stroke-width="1.5" stroke-linecap="round" stroke-linejoin="round"/>
<path d="M16.466 11.1139C16.0413 10.3107 15.3199 9.64625 14.4104 9.22051C13.501 8.79478 12.4528 8.63086 11.4238 8.75346C10.3948 8.87606 9.44072 9.27854 8.70531 9.90024L7.29932 10.9688" stroke="#001A72" stroke-width="1.5" stroke-linecap="round" stroke-linejoin="round"/>
<path d="M7.29932 8.71387V11.1139H9.79932" stroke="#001A72" stroke-width="1.5" stroke-linecap="round" stroke-linejoin="round"/>
<path d="M12.2993 21.7139C17.2699 21.7139 21.2993 17.6845 21.2993 12.7139C21.2993 7.74331 17.2699 3.71387 12.2993 3.71387C7.32876 3.71387 3.29932 7.74331 3.29932 12.7139C3.29932 17.6845 7.32876 21.7139 12.2993 21.7139Z" stroke="#001A72" stroke-width="1.5" stroke-linecap="round" stroke-linejoin="round"/>
</svg>
