<svg width="25" height="25" viewBox="0 0 25 25" fill="none" xmlns="http://www.w3.org/2000/svg">
<path d="M14.1621 9.29326C15.9068 8.28236 17.8222 7.2081 19.7991 6.71387C19.7991 6.71387 20.2991 8.71387 20.2991 12.7139C20.2991 16.7139 19.7991 18.7139 19.7991 18.7139C17.8959 18.2381 15.7451 17.2439 14.1635 16.1173" stroke="#001A72" stroke-width="1.5" stroke-linecap="round" stroke-linejoin="round"/>
<path d="M13.7993 18.7139C13.7993 18.7139 14.0157 17.8484 14.1638 16.1173C14.2408 15.217 14.2993 14.0825 14.2993 12.7139C14.2993 11.3366 14.24 10.1963 14.1623 9.29326C14.0142 7.57367 13.7993 6.71387 13.7993 6.71387C13.7993 6.71387 11.7993 7.21387 8.29932 9.21387C4.79932 11.2139 3.79932 12.7139 3.79932 12.7139C3.79932 12.7139 4.79932 14.2139 8.29932 16.2139C11.7993 18.2139 13.7993 18.7139 13.7993 18.7139Z" stroke="#001A72" stroke-width="1.5" stroke-linecap="round" stroke-linejoin="round"/>
</svg>
