<svg width="25" height="25" viewBox="0 0 25 25" fill="none" xmlns="http://www.w3.org/2000/svg">
<path d="M16.2993 10.7139C15.2166 9.94732 14.2216 8.94488 12.8569 8.75289C11.9981 8.63206 11.1233 8.79361 10.3642 9.21317C9.60522 9.63274 9.00312 10.2876 8.64866 11.0791C8.29421 11.8706 8.2066 12.7559 8.39904 13.6015C8.59149 14.4471 9.05356 15.2072 9.71563 15.7674C10.3777 16.3276 11.2039 16.6575 12.0697 16.7073C12.9356 16.7571 13.7942 16.5242 14.5162 16.0437C15.2381 15.5632 15.7844 14.861 16.0726 14.0431" stroke="#001A72" stroke-width="1.5" stroke-linecap="round" stroke-linejoin="round"/>
<path d="M16.2993 7.71387V10.7139H13.2993" stroke="#001A72" stroke-width="1.5" stroke-linecap="round" stroke-linejoin="round"/>
<path d="M12.2993 21.7139C17.2699 21.7139 21.2993 17.6845 21.2993 12.7139C21.2993 7.74331 17.2699 3.71387 12.2993 3.71387C7.32876 3.71387 3.29932 7.74331 3.29932 12.7139C3.29932 17.6845 7.32876 21.7139 12.2993 21.7139Z" stroke="#001A72" stroke-width="1.5" stroke-linecap="round" stroke-linejoin="round"/>
</svg>
