<svg width="25" height="25" viewBox="0 0 25 25" fill="none" xmlns="http://www.w3.org/2000/svg">
<path d="M12.2993 4.71387C8.74376 4.71387 5.63265 5.15831 5.18821 5.60276C4.74376 6.0472 4.29932 9.15831 4.29932 12.7139C4.29932 16.2695 4.74376 19.3806 5.18821 19.825C5.50028 20.1371 7.12708 20.4492 9.29932 20.6074C10.2207 20.6745 11.2403 20.7139 12.2993 20.7139C13.3583 20.7139 14.3779 20.6745 15.2993 20.6074C17.4715 20.4492 19.0983 20.1371 19.4104 19.825C19.8549 19.3806 20.2993 16.2695 20.2993 12.7139C20.2993 12.0826 20.2614 11.1378 20.2309 10.4776C20.2081 9.98563 20.0002 9.52128 19.6519 9.17301L15.8402 5.36127C15.4919 5.013 15.0275 4.80511 14.5355 4.78231C13.8754 4.75173 12.9306 4.71387 12.2993 4.71387Z" stroke="#001A72" stroke-width="1.5" stroke-linecap="round" stroke-linejoin="round"/>
<path d="M15.2993 20.6074V18.7139C15.2993 18.7139 15.2993 15.7139 12.2993 15.7139C9.29932 15.7139 9.29932 18.7139 9.29932 18.7139V20.6074" stroke="#001A72" stroke-width="1.5" stroke-linecap="round" stroke-linejoin="round"/>
</svg>
