<svg width="25" height="25" viewBox="0 0 25 25" fill="none" xmlns="http://www.w3.org/2000/svg">
<path d="M13.2993 13.7139L16.2993 10.7139L13.2993 7.71387" stroke="#001A72" stroke-width="1.5" stroke-linecap="round" stroke-linejoin="round"/>
<path d="M16.2993 10.7139H8.29932" stroke="#001A72" stroke-width="1.5" stroke-linecap="round" stroke-linejoin="round"/>
<path d="M12.2993 4.21387C8.29932 4.21387 4.79932 4.5472 4.29932 4.88054C3.79932 5.21387 3.29932 8.0472 3.29932 10.7139C3.29932 13.3806 3.79932 16.2139 4.29932 16.5472C4.79932 16.8806 8.29932 17.2139 12.2993 17.2139C16.2993 17.2139 19.7993 16.8806 20.2993 16.5472C20.7993 16.2139 21.2993 13.3806 21.2993 10.7139C21.2993 8.0472 20.7993 5.21387 20.2993 4.88054C19.7993 4.5472 16.2993 4.21387 12.2993 4.21387Z" stroke="#001A72" stroke-width="1.5" stroke-linecap="round" stroke-linejoin="round"/>
<path d="M12.2993 17.2139V21.2139" stroke="#001A72" stroke-width="1.5" stroke-linecap="round" stroke-linejoin="round"/>
<path d="M16.2993 21.2139H12.2993H8.29932" stroke="#001A72" stroke-width="1.5" stroke-linecap="round" stroke-linejoin="round"/>
</svg>
