<svg width="25" height="25" viewBox="0 0 25 25" fill="none" xmlns="http://www.w3.org/2000/svg">
<path d="M11.2993 3.71387H13.2993C13.8516 3.71387 14.2993 4.16159 14.2993 4.71387V5.28266C14.2993 5.71046 14.5864 6.08212 14.9815 6.24615C15.3768 6.41025 15.837 6.34771 16.1396 6.0451L16.5419 5.64278C16.9324 5.25225 17.5656 5.25225 17.9561 5.64278L19.3703 7.05699C19.7609 7.44752 19.7608 8.08068 19.3703 8.47121L18.9681 8.87347C18.6654 9.1761 18.6029 9.63634 18.767 10.0316C18.931 10.4267 19.3027 10.7139 19.7306 10.7139H20.2993C20.8516 10.7139 21.2993 11.1616 21.2993 11.7139V13.7139C21.2993 14.2662 20.8516 14.7139 20.2993 14.7139H19.7305C19.3027 14.7139 18.9311 15.001 18.767 15.3961C18.6029 15.7914 18.6654 16.2516 18.9681 16.5542L19.3703 16.9565C19.7609 17.347 19.7609 17.9802 19.3703 18.3707L17.9561 19.7849C17.5656 20.1755 16.9324 20.1755 16.5419 19.7849L16.1396 19.3827C15.837 19.08 15.3768 19.0175 14.9815 19.1816C14.5864 19.3457 14.2993 19.7173 14.2993 20.1451V20.7139C14.2993 21.2662 13.8516 21.7139 13.2993 21.7139H11.2993C10.747 21.7139 10.2993 21.2662 10.2993 20.7139V20.1452C10.2993 19.7173 10.0122 19.3456 9.61706 19.1816C9.22179 19.0175 8.76155 19.08 8.45892 19.3827L8.05664 19.7849C7.66611 20.1755 7.03295 20.1755 6.64243 19.7849L5.22821 18.3707C4.83769 17.9802 4.83769 17.347 5.22821 16.9565L5.63055 16.5542C5.93316 16.2516 5.9957 15.7914 5.8316 15.3961C5.66757 15.001 5.29591 14.7139 4.86811 14.7139H4.29932C3.74704 14.7139 3.29932 14.2662 3.29932 13.7139V11.7139C3.29932 11.1616 3.74704 10.7139 4.29932 10.7139H4.86809C5.2959 10.7139 5.66757 10.4267 5.83161 10.0316C5.99572 9.63637 5.93318 9.17616 5.63055 8.87353L5.22823 8.47121C4.8377 8.08068 4.8377 7.44752 5.22823 7.057L6.64244 5.64278C7.03297 5.25226 7.66613 5.25226 8.05666 5.64278L8.45898 6.0451C8.7616 6.34773 9.22182 6.41027 9.61708 6.24616C10.0122 6.08212 10.2993 5.71045 10.2993 5.28263V4.71387C10.2993 4.16159 10.747 3.71387 11.2993 3.71387Z" stroke="#001A72" stroke-width="1.5"/>
<path d="M14.2993 12.7139C14.2993 13.8185 13.4039 14.7139 12.2993 14.7139C11.1947 14.7139 10.2993 13.8185 10.2993 12.7139C10.2993 11.6093 11.1947 10.7139 12.2993 10.7139C13.4039 10.7139 14.2993 11.6093 14.2993 12.7139Z" stroke="#001A72" stroke-width="1.5"/>
</svg>
