<svg width="25" height="25" viewBox="0 0 25 25" fill="none" xmlns="http://www.w3.org/2000/svg">
<path d="M21.2993 6.71387C21.2993 8.37072 19.9562 9.71387 18.2993 9.71387C16.6424 9.71387 15.2993 8.37072 15.2993 6.71387C15.2993 5.05702 16.6424 3.71387 18.2993 3.71387C19.9562 3.71387 21.2993 5.05702 21.2993 6.71387Z" stroke="#001A72" stroke-width="1.5"/>
<path d="M8.98389 11.3716L15.6119 8.05762" stroke="#001A72" stroke-width="1.5"/>
<path d="M9.29932 12.7139C9.29932 14.3708 7.95617 15.7139 6.29932 15.7139C4.64247 15.7139 3.29932 14.3708 3.29932 12.7139C3.29932 11.057 4.64247 9.71387 6.29932 9.71387C7.95617 9.71387 9.29932 11.057 9.29932 12.7139Z" stroke="#001A72" stroke-width="1.5"/>
<path d="M15.615 17.3714L8.99316 14.0605" stroke="#001A72" stroke-width="1.5"/>
<path d="M21.2993 18.7139C21.2993 20.3708 19.9562 21.7139 18.2993 21.7139C16.6424 21.7139 15.2993 20.3708 15.2993 18.7139C15.2993 17.057 16.6424 15.7139 18.2993 15.7139C19.9562 15.7139 21.2993 17.057 21.2993 18.7139Z" stroke="#001A72" stroke-width="1.5"/>
</svg>
