<svg width="25" height="25" viewBox="0 0 25 25" fill="none" xmlns="http://www.w3.org/2000/svg">
<path d="M3.29932 7.71387L6.29932 4.71387H9.29932C9.29932 5.10784 9.37692 5.49794 9.52768 5.86192C9.67845 6.2259 9.89942 6.55661 10.178 6.83519C10.4566 7.11377 10.7873 7.33474 11.1512 7.48551C11.5152 7.63627 11.9053 7.71387 12.2993 7.71387C12.6933 7.71387 13.0834 7.63627 13.4474 7.48551C13.8113 7.33474 14.142 7.11377 14.4206 6.83519C14.6992 6.55661 14.9202 6.2259 15.0709 5.86192C15.2217 5.49794 15.2993 5.10784 15.2993 4.71387H18.2993L21.2993 7.71387L20.8778 11.9291C20.8413 12.294 20.4375 12.4968 20.123 12.3081L18.2993 11.2139V18.7139C18.2993 19.8185 17.4039 20.7139 16.2993 20.7139H8.29932C7.19475 20.7139 6.29932 19.8185 6.29932 18.7139V11.2139L4.47561 12.3081C4.16116 12.4968 3.75733 12.294 3.72084 11.9291L3.29932 7.71387Z" stroke="#001A72" stroke-width="1.5" stroke-linecap="round" stroke-linejoin="round"/>
</svg>
