<svg width="25" height="25" viewBox="0 0 25 25" fill="none" xmlns="http://www.w3.org/2000/svg">
<path d="M12.8088 18.5054C12.4881 18.3428 12.1105 18.3428 11.7898 18.5054L7.67874 20.589C6.80807 21.0303 5.82773 20.2332 6.06383 19.2759L7.02507 15.3784C7.11698 15.0057 7.0201 14.6111 6.7666 14.3256L3.59347 10.7517C2.96096 10.0393 3.41026 8.90102 4.35298 8.82751L8.77957 8.48235C9.19364 8.45006 9.55759 8.19196 9.72944 7.80872L11.262 4.3909C11.6668 3.48819 12.9318 3.48819 13.3366 4.3909L14.8692 7.80872C15.041 8.19196 15.405 8.45006 15.819 8.48235L20.2456 8.82751C21.1883 8.90102 21.6377 10.0393 21.0051 10.7517L17.832 14.3256C17.5785 14.6111 17.4816 15.0057 17.5735 15.3784L18.5348 19.2759C18.7709 20.2332 17.7905 21.0303 16.9199 20.589L12.8088 18.5054Z" stroke="#001A72" stroke-width="1.5" stroke-linecap="round" stroke-linejoin="round"/>
</svg>
