<svg width="25" height="25" viewBox="0 0 25 25" fill="none" xmlns="http://www.w3.org/2000/svg">
<path d="M12.2993 12.7139C12.2993 12.7139 12.2993 13.9329 12.2993 14.7139C12.2993 15.4949 12.2993 16.7139 12.2993 16.7139" stroke="#001A72" stroke-width="1.5" stroke-linecap="round" stroke-linejoin="round"/>
<path d="M4.36056 11.7139C4.29929 13.7139 8.29929 14.7139 12.2993 14.7139C16.2993 14.7139 20.2993 13.7139 20.238 11.7139" stroke="#001A72" stroke-width="1.5" stroke-linecap="round" stroke-linejoin="round"/>
<path d="M19.4104 19.9361C19.8549 19.5472 20.2993 16.825 20.2993 13.7139C20.2993 13.0208 20.2772 12.3469 20.238 11.7139C20.1013 9.50559 19.7558 7.79389 19.4104 7.49165C18.966 7.10276 15.2993 6.80709 15.2993 6.80709C14.3779 6.74837 13.3583 6.71387 12.2993 6.71387C11.2403 6.71387 10.2207 6.74837 9.29932 6.80709C9.29932 6.80709 5.63265 7.10276 5.18821 7.49165C4.84278 7.79389 4.49736 9.50559 4.36059 11.7139C4.32138 12.3469 4.29932 13.0208 4.29932 13.7139C4.29932 16.825 4.74376 19.5472 5.18821 19.9361C5.63265 20.325 8.74376 20.7139 12.2993 20.7139C15.8549 20.7139 18.966 20.325 19.4104 19.9361Z" stroke="#001A72" stroke-width="1.5" stroke-linecap="round" stroke-linejoin="round"/>
<path d="M9.29932 6.80709V5.71387C9.29932 3.93883 10.9366 3.71387 12.2993 3.71387C13.662 3.71387 15.2993 3.93883 15.2993 5.71387V6.80709" stroke="#001A72" stroke-width="1.5" stroke-linecap="round" stroke-linejoin="round"/>
</svg>
