<svg width="25" height="25" viewBox="0 0 25 25" fill="none" xmlns="http://www.w3.org/2000/svg">
<path d="M5.6428 19.3706L3.52148 21.492M5.58658 19.3145L5.69865 19.4266" stroke="#001A72" stroke-width="1.5" stroke-linecap="round" stroke-linejoin="round"/>
<path d="M6.26411 15.749L5.53067 16.5444C4.80324 17.3333 4.82799 18.5557 5.58677 19.3144L5.69883 19.4265C6.4577 20.1854 7.68024 20.21 8.46908 19.4824L9.26411 18.749" stroke="#001A72" stroke-width="1.5" stroke-linecap="round" stroke-linejoin="round"/>
<path d="M13.4211 7.34995C14.2022 6.5689 15.4685 6.5689 16.2496 7.34995L17.6638 8.76416C18.4448 9.54521 18.4448 10.8115 17.6638 11.5926L10.5071 18.7492C10.1639 19.0925 9.60737 19.0925 9.26412 18.7492L6.26412 15.7492C5.92108 15.4062 5.92108 14.85 6.26412 14.507L13.4211 7.34995Z" stroke="#001A72" stroke-width="1.5" stroke-linecap="round" stroke-linejoin="round"/>
<path d="M19.0775 5.93604L16.9561 8.05736" stroke="#001A72" stroke-width="1.5" stroke-linecap="round" stroke-linejoin="round"/>
<path d="M16.9561 3.81445L19.0775 5.93578L21.1988 8.0571" stroke="#001A72" stroke-width="1.5" stroke-linecap="round" stroke-linejoin="round"/>
</svg>
