<svg width="25" height="25" viewBox="0 0 25 25" fill="none" xmlns="http://www.w3.org/2000/svg">
<path d="M11.2993 12.7139C11.2993 13.5423 10.6277 14.2139 9.79932 14.2139C8.97089 14.2139 8.29932 13.5423 8.29932 12.7139C8.29932 11.8855 8.97089 11.2139 9.79932 11.2139C10.6277 11.2139 11.2993 11.8855 11.2993 12.7139Z" stroke="#001A72" stroke-width="1.5" stroke-linecap="round" stroke-linejoin="round"/>
<path d="M21.2995 16.7139V8.71387C21.2995 7.6093 20.4041 6.71387 19.2995 6.71387H9.12793C8.5975 6.71387 8.08879 6.92458 7.71372 7.29966L3.71372 11.2997C2.93267 12.0807 2.93267 13.3471 3.71372 14.1281L7.71372 18.1281C8.08879 18.5032 8.5975 18.7139 9.12793 18.7139H19.2995C20.4041 18.7139 21.2995 17.8185 21.2995 16.7139Z" stroke="#001A72" stroke-width="1.5" stroke-linecap="round" stroke-linejoin="round"/>
</svg>
