<svg width="25" height="25" viewBox="0 0 25 25" fill="none" xmlns="http://www.w3.org/2000/svg">
<path d="M9.49739 5.17212C8.8535 4.93678 8.24359 4.71387 7.29932 4.71387C5.29932 4.71387 4.29932 6.71387 4.29932 9.21387C4.29932 10.8124 4.70817 11.7977 5.13373 12.8232C5.37372 13.4016 5.61903 13.9927 5.79932 14.7139C5.94832 15.3099 6.00852 16.1723 6.07253 17.0894C6.22333 19.2499 6.39532 21.7139 7.79932 21.7139C8.6983 21.7139 9.09218 20.2996 9.52584 18.7425C10.057 16.8353 10.6478 14.7139 12.2993 14.7139C13.9508 14.7139 14.5416 16.8353 15.0728 18.7425C15.5064 20.2996 15.9003 21.7139 16.7993 21.7139C18.2033 21.7139 18.3753 19.2499 18.5261 17.0894C18.5901 16.1723 18.6503 15.3099 18.7993 14.7139C18.9796 13.9927 19.2249 13.4016 19.4649 12.8232C19.8905 11.7977 20.2993 10.8124 20.2993 9.21387C20.2993 6.71387 19.2993 4.71387 17.2993 4.71387C16.355 4.71387 15.7451 4.93678 15.1012 5.17212C14.3813 5.43523 13.619 5.71387 12.2993 5.71387C10.9796 5.71387 10.2173 5.43523 9.49739 5.17212Z" stroke="#001A72" stroke-width="1.5" stroke-linecap="round" stroke-linejoin="round"/>
</svg>
