<svg width="25" height="25" viewBox="0 0 25 25" fill="none" xmlns="http://www.w3.org/2000/svg">
<path d="M12.2993 12.7139V21.7139" stroke="#001A72" stroke-width="1.5" stroke-linecap="round" stroke-linejoin="round"/>
<path d="M17.956 7.05702C19.2647 8.36571 20.0731 10.0811 20.2583 11.9062C20.2958 12.276 19.9079 12.5183 19.5755 12.3521L18.5227 11.8257C18.3819 11.7553 18.2163 11.7553 18.0755 11.8257L16.5227 12.6021C16.3819 12.6725 16.2163 12.6725 16.0755 12.6021L14.5227 11.8257C14.3819 11.7553 14.2163 11.7553 14.0755 11.8257L12.5227 12.6021C12.3819 12.6725 12.2163 12.6725 12.0755 12.6021L10.5227 11.8257C10.3819 11.7553 10.2162 11.7553 10.0755 11.8257L8.52269 12.6021C8.38193 12.6725 8.21624 12.6725 8.07548 12.6021L6.52269 11.8257C6.38193 11.7553 6.21624 11.7553 6.07548 11.8257L5.02269 12.3521C4.69024 12.5183 4.30242 12.276 4.33993 11.9062C4.52508 10.0811 5.33353 8.36571 6.64223 7.05702C8.14252 5.55672 10.1773 4.71387 12.2991 4.71387C14.4208 4.71387 16.4557 5.55672 17.956 7.05702Z" stroke="#001A72" stroke-width="1.5" stroke-linecap="round" stroke-linejoin="round"/>
<path d="M12.2993 3.71387V4.71387" stroke="#001A72" stroke-width="1.5" stroke-linecap="round" stroke-linejoin="round"/>
</svg>
