<svg width="25" height="25" viewBox="0 0 25 25" fill="none" xmlns="http://www.w3.org/2000/svg">
<g clip-path="url(#clip0_101_1304)">
<path d="M19.2993 14.7139C21.5084 14.7139 23.2993 16.7139 23.2993 18.2139C23.2993 19.0423 22.6277 19.7139 21.7993 19.7139H21.2993" stroke="#001A72" stroke-width="1.5" stroke-linecap="round" stroke-linejoin="round"/>
<path d="M17.2993 11.7139C18.9562 11.7139 20.2993 10.3707 20.2993 8.71387C20.2993 7.05702 18.9562 5.71387 17.2993 5.71387" stroke="#001A72" stroke-width="1.5" stroke-linecap="round" stroke-linejoin="round"/>
<path d="M7.79932 19.7139H16.7993C17.6277 19.7139 18.2993 19.0423 18.2993 18.2139C18.2993 15.7139 15.2993 14.7139 12.2993 14.7139C9.29932 14.7139 6.29932 15.7139 6.29932 18.2139C6.29932 19.0423 6.97089 19.7139 7.79932 19.7139Z" stroke="#001A72" stroke-width="1.5" stroke-linecap="round" stroke-linejoin="round"/>
<path d="M12.2993 11.7139C13.9562 11.7139 15.2993 10.3707 15.2993 8.71387C15.2993 7.05702 13.9562 5.71387 12.2993 5.71387C10.6424 5.71387 9.29932 7.05702 9.29932 8.71387C9.29932 10.3707 10.6424 11.7139 12.2993 11.7139Z" stroke="#001A72" stroke-width="1.5" stroke-linecap="round" stroke-linejoin="round"/>
<path d="M5.29932 14.7139C3.09018 14.7139 1.29932 16.7139 1.29932 18.2139C1.29932 19.0423 1.97089 19.7139 2.79932 19.7139H3.29932" stroke="#001A72" stroke-width="1.5" stroke-linecap="round" stroke-linejoin="round"/>
<path d="M7.29932 11.7139C5.64247 11.7139 4.29932 10.3707 4.29932 8.71387C4.29932 7.05702 5.64247 5.71387 7.29932 5.71387" stroke="#001A72" stroke-width="1.5" stroke-linecap="round" stroke-linejoin="round"/>
</g>
<defs>
<clipPath id="clip0_101_1304">
<rect width="24" height="24" fill="white" transform="translate(0.299316 0.713867)"/>
</clipPath>
</defs>
</svg>
