<svg width="25" height="25" viewBox="0 0 25 25" fill="none" xmlns="http://www.w3.org/2000/svg">
<g clip-path="url(#clip0_101_1292)">
<path d="M21.2993 11.7139C21.2993 10.2853 23.2993 10.2853 23.2993 8.79179C23.2993 7.64419 22.4215 6.71387 21.2993 6.71387C20.3525 6.71387 19.5249 7.37609 19.2993 8.27231" stroke="#001A72" stroke-width="1.5" stroke-linecap="round" stroke-linejoin="round"/>
<path d="M21.2993 13.7139V13.7239" stroke="#001A72" stroke-width="1.5" stroke-linecap="round" stroke-linejoin="round"/>
<path d="M17.7993 21.714H6.79932C5.41861 21.714 4.29932 20.5947 4.29932 19.214C4.29932 15.1333 10.2993 15.214 12.2993 15.214C14.2993 15.214 20.2993 15.1333 20.2993 19.214C20.2993 20.5947 19.18 21.714 17.7993 21.714Z" stroke="#001A72" stroke-width="1.5" stroke-linecap="round" stroke-linejoin="round"/>
<path d="M12.2993 11.7139C14.5084 11.7139 16.2993 9.92301 16.2993 7.71387C16.2993 5.50473 14.5084 3.71387 12.2993 3.71387C10.0902 3.71387 8.29932 5.50473 8.29932 7.71387C8.29932 9.92301 10.0902 11.7139 12.2993 11.7139Z" stroke="#001A72" stroke-width="1.5" stroke-linecap="round" stroke-linejoin="round"/>
</g>
<defs>
<clipPath id="clip0_101_1292">
<rect width="24" height="24" fill="white" transform="translate(0.299316 0.713867)"/>
</clipPath>
</defs>
</svg>
