<svg width="25" height="25" viewBox="0 0 25 25" fill="none" xmlns="http://www.w3.org/2000/svg">
<path d="M12.2993 21.7139C17.2699 21.7139 21.2993 17.6845 21.2993 12.7139C21.2993 7.74331 17.2699 3.71387 12.2993 3.71387C7.32876 3.71387 3.29932 7.74331 3.29932 12.7139C3.29932 17.6845 7.32876 21.7139 12.2993 21.7139Z" stroke="#001A72" stroke-width="1.5" stroke-linecap="round" stroke-linejoin="round"/>
<path d="M18.2993 19.4162C18.2993 16.3845 14.7993 15.7139 12.2993 15.7139C9.79932 15.7139 6.29932 16.3845 6.29932 19.4162" stroke="#001A72" stroke-width="1.5" stroke-linecap="round" stroke-linejoin="round"/>
<path d="M12.2993 12.7139C13.9562 12.7139 15.2993 11.3708 15.2993 9.71387C15.2993 8.05702 13.9562 6.71387 12.2993 6.71387C10.6424 6.71387 9.29932 8.05702 9.29932 9.71387C9.29932 11.3708 10.6424 12.7139 12.2993 12.7139Z" stroke="#001A72" stroke-width="1.5" stroke-linecap="round" stroke-linejoin="round"/>
</svg>
