<svg width="25" height="25" viewBox="0 0 25 25" fill="none" xmlns="http://www.w3.org/2000/svg">
<path d="M8.79932 6.65188L7.54932 4.48682" stroke="#001A72" stroke-width="1.5" stroke-linecap="round" stroke-linejoin="round"/>
<path d="M6.23733 9.21387L4.07227 7.96387" stroke="#001A72" stroke-width="1.5" stroke-linecap="round" stroke-linejoin="round"/>
<path d="M5.29932 12.7139H2.79932" stroke="#001A72" stroke-width="1.5" stroke-linecap="round" stroke-linejoin="round"/>
<path d="M6.23733 16.2139L4.07227 17.4639" stroke="#001A72" stroke-width="1.5" stroke-linecap="round" stroke-linejoin="round"/>
<path d="M8.79932 18.7764L7.54932 20.9414" stroke="#001A72" stroke-width="1.5" stroke-linecap="round" stroke-linejoin="round"/>
<path d="M12.2993 19.7139V22.2139" stroke="#001A72" stroke-width="1.5" stroke-linecap="round" stroke-linejoin="round"/>
<path d="M17.0493 20.9414L15.7993 18.7764" stroke="#001A72" stroke-width="1.5" stroke-linecap="round" stroke-linejoin="round"/>
<path d="M20.5264 17.4639L18.3613 16.2139" stroke="#001A72" stroke-width="1.5" stroke-linecap="round" stroke-linejoin="round"/>
<path d="M19.2993 12.7139H21.7993" stroke="#001A72" stroke-width="1.5" stroke-linecap="round" stroke-linejoin="round"/>
<path d="M20.5264 7.96387L18.3613 9.21387" stroke="#001A72" stroke-width="1.5" stroke-linecap="round" stroke-linejoin="round"/>
<path d="M15.2993 15.7141V15.7241M17.0494 4.48682L15.7994 6.65188" stroke="#001A72" stroke-width="1.5" stroke-linecap="round" stroke-linejoin="round"/>
<path d="M12.2993 5.71387V3.21387" stroke="#001A72" stroke-width="1.5" stroke-linecap="round" stroke-linejoin="round"/>
<path d="M8.29932 11.7139V11.7239" stroke="#001A72" stroke-width="1.5" stroke-linecap="round" stroke-linejoin="round"/>
<path d="M11.2993 15.7139C11.2993 16.2662 10.8516 16.7139 10.2993 16.7139C9.74704 16.7139 9.29932 16.2662 9.29932 15.7139C9.29932 15.1616 9.74704 14.7139 10.2993 14.7139C10.8516 14.7139 11.2993 15.1616 11.2993 15.7139Z" stroke="#001A72" stroke-width="1.5" stroke-linecap="round" stroke-linejoin="round"/>
<path d="M15.2993 10.7139C15.2993 11.8185 14.4039 12.7139 13.2993 12.7139C12.1947 12.7139 11.2993 11.8185 11.2993 10.7139C11.2993 9.6093 12.1947 8.71387 13.2993 8.71387C14.4039 8.71387 15.2993 9.6093 15.2993 10.7139Z" stroke="#001A72" stroke-width="1.5" stroke-linecap="round" stroke-linejoin="round"/>
<path d="M12.2993 19.7139C16.1653 19.7139 19.2993 16.5799 19.2993 12.7139C19.2993 8.84788 16.1653 5.71387 12.2993 5.71387C8.43333 5.71387 5.29932 8.84788 5.29932 12.7139C5.29932 16.5799 8.43333 19.7139 12.2993 19.7139Z" stroke="#001A72" stroke-width="1.5" stroke-linecap="round" stroke-linejoin="round"/>
</svg>
