<svg width="25" height="25" viewBox="0 0 25 25" fill="none" xmlns="http://www.w3.org/2000/svg">
<path d="M12.2993 5.71387C8.0771 5.71387 4.38265 6.07498 3.85488 6.43609C3.46557 6.70246 3.07626 8.64777 2.89878 10.5473C2.83565 11.2229 2.79932 11.956 2.79932 12.714C2.79932 15.6028 3.3271 18.6306 3.85488 18.9917C4.38265 19.3528 8.0771 19.7139 12.2993 19.7139C16.5215 19.7139 20.216 19.3528 20.7437 18.9917C21.0549 18.7788 21.366 17.3129 21.569 15.964C21.7104 15.0247 21.7993 13.8998 21.7993 12.714C21.7993 11.956 21.763 11.2229 21.6998 10.5473C21.6642 10.1659 21.62 9.80281 21.569 9.46392C21.366 8.11494 21.0549 6.64898 20.7437 6.43609C20.216 6.07498 16.5215 5.71387 12.2993 5.71387Z" stroke="#001A72" stroke-width="1.5" stroke-linecap="round" stroke-linejoin="round"/>
<path d="M21.6093 9.71387H14.3169C12.6503 9.71387 11.2993 11.057 11.2993 12.7139C11.2993 14.3708 12.6503 15.7139 14.3169 15.7139H21.6093" stroke="#001A72" stroke-width="1.5" stroke-linecap="round" stroke-linejoin="round"/>
<path d="M14.2993 12.7139V12.7239" stroke="#001A72" stroke-width="1.5" stroke-linecap="round" stroke-linejoin="round"/>
</svg>
